M48
; DRILL file {KiCad 7.0.8} date Sat Sep 28 20:51:59 2024
; FORMAT={-:-/ absolute / metric / decimal}
; #@! TF.CreationDate,2024-09-28T20:51:59-07:00
; #@! TF.GenerationSoftware,Kicad,Pcbnew,7.0.8
; #@! TF.FileFunction,MixedPlating,1,2
FMAT,2
METRIC
; #@! TA.AperFunction,Plated,PTH,ViaDrill
T1C0.400
; #@! TA.AperFunction,Plated,PTH,ComponentDrill
T2C1.000
; #@! TA.AperFunction,NonPlated,NPTH,ComponentDrill
T3C2.200
%
G90
G05
T1
X122.4Y-91.501
X126.1Y-101.9
X127.0Y-84.4
X127.9Y-98.9
X129.3Y-101.3
X129.4Y-111.5
X130.8Y-108.7
X132.2Y-92.4
X132.499Y-108.6
X132.9Y-100.45
X133.0Y-104.95
X133.21Y-92.4
X134.8Y-113.0
X136.0Y-109.9
X136.0Y-111.9
X136.1Y-95.1
X137.05Y-95.05
X138.7Y-105.799
X138.71Y-104.001
X138.8Y-93.7
X138.826Y-97.826
X139.3Y-90.0
X140.3Y-100.5
X140.6Y-104.1
X140.9Y-108.3
X140.9Y-109.7
X143.275Y-99.125
X143.675Y-107.0
X144.225Y-106.1
X144.7Y-80.9
X145.15Y-105.6
X147.1Y-89.6
X148.4Y-85.6
T2
X148.0Y-99.2
X148.0Y-101.74
T3
X120.0Y-80.0
X120.0Y-112.5
X150.0Y-80.0
X150.0Y-112.5
T0
M30
