%TF.GenerationSoftware,KiCad,Pcbnew,7.0.8*%
%TF.CreationDate,2024-09-28T20:52:04-07:00*%
%TF.ProjectId,proves_pcb_challenge,70726f76-6573-45f7-9063-625f6368616c,rev?*%
%TF.SameCoordinates,Original*%
%TF.FileFunction,Soldermask,Top*%
%TF.FilePolarity,Negative*%
%FSLAX46Y46*%
G04 Gerber Fmt 4.6, Leading zero omitted, Abs format (unit mm)*
G04 Created by KiCad (PCBNEW 7.0.8) date 2024-09-28 20:52:04*
%MOMM*%
%LPD*%
G01*
G04 APERTURE LIST*
G04 Aperture macros list*
%AMRoundRect*
0 Rectangle with rounded corners*
0 $1 Rounding radius*
0 $2 $3 $4 $5 $6 $7 $8 $9 X,Y pos of 4 corners*
0 Add a 4 corners polygon primitive as box body*
4,1,4,$2,$3,$4,$5,$6,$7,$8,$9,$2,$3,0*
0 Add four circle primitives for the rounded corners*
1,1,$1+$1,$2,$3*
1,1,$1+$1,$4,$5*
1,1,$1+$1,$6,$7*
1,1,$1+$1,$8,$9*
0 Add four rect primitives between the rounded corners*
20,1,$1+$1,$2,$3,$4,$5,0*
20,1,$1+$1,$4,$5,$6,$7,0*
20,1,$1+$1,$6,$7,$8,$9,0*
20,1,$1+$1,$8,$9,$2,$3,0*%
G04 Aperture macros list end*
%ADD10RoundRect,0.135000X-0.185000X0.135000X-0.185000X-0.135000X0.185000X-0.135000X0.185000X0.135000X0*%
%ADD11C,2.200000*%
%ADD12RoundRect,0.135000X-0.135000X-0.185000X0.135000X-0.185000X0.135000X0.185000X-0.135000X0.185000X0*%
%ADD13RoundRect,0.135000X0.135000X0.185000X-0.135000X0.185000X-0.135000X-0.185000X0.135000X-0.185000X0*%
%ADD14RoundRect,0.135000X0.185000X-0.135000X0.185000X0.135000X-0.185000X0.135000X-0.185000X-0.135000X0*%
%ADD15RoundRect,0.140000X0.170000X-0.140000X0.170000X0.140000X-0.170000X0.140000X-0.170000X-0.140000X0*%
%ADD16R,1.700000X1.700000*%
%ADD17O,1.700000X1.700000*%
%ADD18R,0.650000X1.050000*%
%ADD19RoundRect,0.225000X-0.225000X-0.250000X0.225000X-0.250000X0.225000X0.250000X-0.225000X0.250000X0*%
%ADD20R,1.700000X0.650000*%
%ADD21RoundRect,0.087500X-0.087500X0.125000X-0.087500X-0.125000X0.087500X-0.125000X0.087500X0.125000X0*%
%ADD22RoundRect,0.087500X-0.125000X0.087500X-0.125000X-0.087500X0.125000X-0.087500X0.125000X0.087500X0*%
%ADD23RoundRect,0.140000X0.140000X0.170000X-0.140000X0.170000X-0.140000X-0.170000X0.140000X-0.170000X0*%
%ADD24RoundRect,0.140000X-0.170000X0.140000X-0.170000X-0.140000X0.170000X-0.140000X0.170000X0.140000X0*%
%ADD25RoundRect,0.218750X-0.218750X-0.256250X0.218750X-0.256250X0.218750X0.256250X-0.218750X0.256250X0*%
%ADD26RoundRect,0.225000X-0.250000X0.225000X-0.250000X-0.225000X0.250000X-0.225000X0.250000X0.225000X0*%
%ADD27R,1.400000X1.200000*%
%ADD28R,0.400000X1.400000*%
%ADD29R,2.300000X1.900000*%
%ADD30R,1.800000X1.900000*%
%ADD31RoundRect,0.140000X-0.140000X-0.170000X0.140000X-0.170000X0.140000X0.170000X-0.140000X0.170000X0*%
%ADD32R,1.500000X2.000000*%
%ADD33R,3.800000X2.000000*%
%ADD34RoundRect,0.050000X-0.387500X-0.050000X0.387500X-0.050000X0.387500X0.050000X-0.387500X0.050000X0*%
%ADD35RoundRect,0.050000X-0.050000X-0.387500X0.050000X-0.387500X0.050000X0.387500X-0.050000X0.387500X0*%
%ADD36R,3.200000X3.200000*%
G04 APERTURE END LIST*
D10*
%TO.C,R8*%
X137400000Y-109900000D03*
X137400000Y-110920000D03*
%TD*%
D11*
%TO.C,H2*%
X150000000Y-80000000D03*
%TD*%
D12*
%TO.C,R9*%
X124080000Y-94700000D03*
X125100000Y-94700000D03*
%TD*%
D13*
%TO.C,R1*%
X144620000Y-82200000D03*
X143600000Y-82200000D03*
%TD*%
D14*
%TO.C,R3*%
X133600000Y-108620000D03*
X133600000Y-107600000D03*
%TD*%
D11*
%TO.C,H1*%
X120000000Y-80000000D03*
%TD*%
D15*
%TO.C,C13*%
X138800000Y-99860000D03*
X138800000Y-98900000D03*
%TD*%
D16*
%TO.C,J3*%
X148000000Y-101740000D03*
D17*
X148000000Y-99200000D03*
%TD*%
D10*
%TO.C,R6*%
X140300000Y-105200000D03*
X140300000Y-106220000D03*
%TD*%
%TO.C,R5*%
X134630000Y-91150000D03*
X134630000Y-92170000D03*
%TD*%
D18*
%TO.C,SW1*%
X126200000Y-96250000D03*
X126200000Y-100400000D03*
X124050000Y-96250000D03*
X124050000Y-100400000D03*
%TD*%
D15*
%TO.C,C3*%
X136080000Y-96930000D03*
X136080000Y-95970000D03*
%TD*%
D19*
%TO.C,C2*%
X145400000Y-85600000D03*
X146950000Y-85600000D03*
%TD*%
D15*
%TO.C,C8*%
X139300000Y-102280000D03*
X139300000Y-101320000D03*
%TD*%
D20*
%TO.C,U3*%
X122350000Y-86250000D03*
X122350000Y-87520000D03*
X122350000Y-88790000D03*
X122350000Y-90060000D03*
X129650000Y-90060000D03*
X129650000Y-88790000D03*
X129650000Y-87520000D03*
X129650000Y-86250000D03*
%TD*%
D21*
%TO.C,U4*%
X142600000Y-104300000D03*
X142100000Y-104300000D03*
D22*
X141587500Y-104562500D03*
X141587500Y-105062500D03*
X141587500Y-105562500D03*
D21*
X142100000Y-105825000D03*
X142600000Y-105825000D03*
D22*
X143112500Y-105562500D03*
X143112500Y-105062500D03*
X143112500Y-104562500D03*
%TD*%
D15*
%TO.C,C6*%
X137080000Y-96930000D03*
X137080000Y-95970000D03*
%TD*%
D11*
%TO.C,H4*%
X150000000Y-112500000D03*
%TD*%
D23*
%TO.C,C14*%
X129380000Y-84400000D03*
X128420000Y-84400000D03*
%TD*%
D24*
%TO.C,C5*%
X136000000Y-107800000D03*
X136000000Y-108760000D03*
%TD*%
D15*
%TO.C,C12*%
X138800000Y-95800000D03*
X138800000Y-94840000D03*
%TD*%
D25*
%TO.C,D1*%
X143600000Y-83800000D03*
X145175000Y-83800000D03*
%TD*%
D13*
%TO.C,R2*%
X120710000Y-86300000D03*
X119690000Y-86300000D03*
%TD*%
D15*
%TO.C,C11*%
X129300000Y-99880000D03*
X129300000Y-98920000D03*
%TD*%
D12*
%TO.C,R7*%
X142080000Y-102900000D03*
X143100000Y-102900000D03*
%TD*%
D10*
%TO.C,R4*%
X135630000Y-91150000D03*
X135630000Y-92170000D03*
%TD*%
D26*
%TO.C,C1*%
X139300000Y-87200000D03*
X139300000Y-88750000D03*
%TD*%
D15*
%TO.C,C7*%
X133300000Y-94600000D03*
X133300000Y-93640000D03*
%TD*%
D11*
%TO.C,H3*%
X120000000Y-112500000D03*
%TD*%
D27*
%TO.C,Y1*%
X131000000Y-113050000D03*
X133200000Y-113050000D03*
X133200000Y-111450000D03*
X131000000Y-111450000D03*
%TD*%
D28*
%TO.C,J1*%
X135920000Y-81490000D03*
X135270000Y-81490000D03*
X134620000Y-81490000D03*
X133970000Y-81490000D03*
X133320000Y-81490000D03*
D29*
X138370000Y-78640000D03*
D30*
X135770000Y-78640000D03*
X133470000Y-78640000D03*
D29*
X130870000Y-78640000D03*
%TD*%
D15*
%TO.C,C10*%
X129300000Y-103480000D03*
X129300000Y-102520000D03*
%TD*%
%TO.C,C4*%
X132200000Y-94600000D03*
X132200000Y-93640000D03*
%TD*%
D31*
%TO.C,C18*%
X144175000Y-104475000D03*
X145135000Y-104475000D03*
%TD*%
D32*
%TO.C,U1*%
X147000000Y-87850000D03*
X144700000Y-87850000D03*
X142400000Y-87850000D03*
D33*
X144700000Y-94150000D03*
%TD*%
D31*
%TO.C,C15*%
X130840000Y-109800000D03*
X131800000Y-109800000D03*
%TD*%
D24*
%TO.C,C9*%
X134900000Y-110900000D03*
X134900000Y-111860000D03*
%TD*%
D31*
%TO.C,C16*%
X132840000Y-109800000D03*
X133800000Y-109800000D03*
%TD*%
D34*
%TO.C,U2*%
X130562500Y-99900000D03*
X130562500Y-100300000D03*
X130562500Y-100700000D03*
X130562500Y-101100000D03*
X130562500Y-101500000D03*
X130562500Y-101900000D03*
X130562500Y-102300000D03*
X130562500Y-102700000D03*
X130562500Y-103100000D03*
X130562500Y-103500000D03*
X130562500Y-103900000D03*
X130562500Y-104300000D03*
X130562500Y-104700000D03*
X130562500Y-105100000D03*
D35*
X131400000Y-105937500D03*
X131800000Y-105937500D03*
X132200000Y-105937500D03*
X132600000Y-105937500D03*
X133000000Y-105937500D03*
X133400000Y-105937500D03*
X133800000Y-105937500D03*
X134200000Y-105937500D03*
X134600000Y-105937500D03*
X135000000Y-105937500D03*
X135400000Y-105937500D03*
X135800000Y-105937500D03*
X136200000Y-105937500D03*
X136600000Y-105937500D03*
D34*
X137437500Y-105100000D03*
X137437500Y-104700000D03*
X137437500Y-104300000D03*
X137437500Y-103900000D03*
X137437500Y-103500000D03*
X137437500Y-103100000D03*
X137437500Y-102700000D03*
X137437500Y-102300000D03*
X137437500Y-101900000D03*
X137437500Y-101500000D03*
X137437500Y-101100000D03*
X137437500Y-100700000D03*
X137437500Y-100300000D03*
X137437500Y-99900000D03*
D35*
X136600000Y-99062500D03*
X136200000Y-99062500D03*
X135800000Y-99062500D03*
X135400000Y-99062500D03*
X135000000Y-99062500D03*
X134600000Y-99062500D03*
X134200000Y-99062500D03*
X133800000Y-99062500D03*
X133400000Y-99062500D03*
X133000000Y-99062500D03*
X132600000Y-99062500D03*
X132200000Y-99062500D03*
X131800000Y-99062500D03*
X131400000Y-99062500D03*
D36*
X134000000Y-102500000D03*
%TD*%
M02*
