%TF.GenerationSoftware,KiCad,Pcbnew,7.0.8*%
%TF.CreationDate,2024-09-28T20:52:04-07:00*%
%TF.ProjectId,proves_pcb_challenge,70726f76-6573-45f7-9063-625f6368616c,rev?*%
%TF.SameCoordinates,Original*%
%TF.FileFunction,Copper,L2,Bot*%
%TF.FilePolarity,Positive*%
%FSLAX46Y46*%
G04 Gerber Fmt 4.6, Leading zero omitted, Abs format (unit mm)*
G04 Created by KiCad (PCBNEW 7.0.8) date 2024-09-28 20:52:04*
%MOMM*%
%LPD*%
G01*
G04 APERTURE LIST*
%TA.AperFunction,ComponentPad*%
%ADD10R,1.700000X1.700000*%
%TD*%
%TA.AperFunction,ComponentPad*%
%ADD11O,1.700000X1.700000*%
%TD*%
%TA.AperFunction,ViaPad*%
%ADD12C,0.800000*%
%TD*%
%TA.AperFunction,Conductor*%
%ADD13C,0.500000*%
%TD*%
G04 APERTURE END LIST*
D10*
%TO.P,J3,1,Pin_1*%
%TO.N,/RUN*%
X148000000Y-101740000D03*
D11*
%TO.P,J3,2,Pin_2*%
%TO.N,GND*%
X148000000Y-99200000D03*
%TD*%
D12*
%TO.N,GND*%
X133000000Y-104950000D03*
X134800000Y-113000000D03*
X143275000Y-99125000D03*
X129300000Y-101300000D03*
X133210500Y-92400000D03*
X137050000Y-95050000D03*
X127900000Y-98900000D03*
X132900000Y-100450000D03*
X144700000Y-80900000D03*
X136100000Y-95100000D03*
X129400000Y-111500000D03*
X122400000Y-91500500D03*
X144225000Y-106100000D03*
X130800000Y-108700000D03*
X138825872Y-97825872D03*
X147100000Y-89600000D03*
X145150000Y-105600000D03*
X132200000Y-92400000D03*
X126100000Y-101900000D03*
X140600000Y-104100000D03*
X136000000Y-109900000D03*
X140300000Y-100500000D03*
X143675000Y-107000000D03*
X138800000Y-93700000D03*
X136000000Y-111900000D03*
X139300000Y-90000000D03*
X127000000Y-84400000D03*
X132499500Y-108600000D03*
X148400000Y-85600000D03*
%TO.N,+3V3*%
X140900000Y-108300500D03*
X138710403Y-104000500D03*
X140900000Y-109700000D03*
X138700000Y-105799500D03*
%TD*%
D13*
%TO.N,+3V3*%
X138710403Y-105789097D02*
X138700000Y-105799500D01*
X140900000Y-108300500D02*
X140900000Y-109700000D01*
X138710403Y-104000500D02*
X138710403Y-105789097D01*
%TD*%
%TA.AperFunction,Conductor*%
%TO.N,GND*%
G36*
X150217318Y-75009488D02*
G01*
X150415934Y-75018160D01*
X150420865Y-75018574D01*
X150636792Y-75045489D01*
X150832940Y-75071313D01*
X150837265Y-75071883D01*
X150841894Y-75072671D01*
X151054183Y-75117183D01*
X151252534Y-75161157D01*
X151256778Y-75162257D01*
X151464544Y-75224112D01*
X151658658Y-75285317D01*
X151662530Y-75286680D01*
X151864457Y-75365472D01*
X152052817Y-75443494D01*
X152056252Y-75445045D01*
X152131343Y-75481755D01*
X152250992Y-75540249D01*
X152388629Y-75611897D01*
X152432009Y-75634479D01*
X152435107Y-75636207D01*
X152621382Y-75747202D01*
X152793662Y-75856957D01*
X152796377Y-75858789D01*
X152972918Y-75984837D01*
X153135098Y-76109282D01*
X153137426Y-76111159D01*
X153303055Y-76251439D01*
X153454895Y-76390574D01*
X153609424Y-76545103D01*
X153748555Y-76696938D01*
X153763008Y-76714003D01*
X153888839Y-76862572D01*
X153890716Y-76864900D01*
X154015162Y-77027081D01*
X154141209Y-77203621D01*
X154143040Y-77206335D01*
X154252797Y-77378617D01*
X154363791Y-77564891D01*
X154365525Y-77568000D01*
X154459750Y-77749007D01*
X154525992Y-77884503D01*
X154554953Y-77943744D01*
X154556524Y-77947229D01*
X154634536Y-78135566D01*
X154713309Y-78337445D01*
X154714681Y-78341340D01*
X154775899Y-78535496D01*
X154837735Y-78743200D01*
X154838843Y-78747472D01*
X154882818Y-78945826D01*
X154927326Y-79158101D01*
X154928115Y-79162733D01*
X154954524Y-79363319D01*
X154981422Y-79579114D01*
X154981839Y-79584080D01*
X154990513Y-79782728D01*
X154999500Y-80000000D01*
X154999500Y-112500000D01*
X154990513Y-112717271D01*
X154981839Y-112915918D01*
X154981422Y-112920884D01*
X154954524Y-113136680D01*
X154928115Y-113337265D01*
X154927326Y-113341897D01*
X154882818Y-113554173D01*
X154838843Y-113752526D01*
X154837735Y-113756798D01*
X154775899Y-113964503D01*
X154714681Y-114158658D01*
X154713309Y-114162552D01*
X154634536Y-114364433D01*
X154556524Y-114552769D01*
X154554944Y-114556274D01*
X154459750Y-114750992D01*
X154365525Y-114931998D01*
X154363791Y-114935107D01*
X154252797Y-115121382D01*
X154143040Y-115293663D01*
X154141209Y-115296377D01*
X154015162Y-115472918D01*
X153890716Y-115635099D01*
X153888839Y-115637426D01*
X153748557Y-115803059D01*
X153609426Y-115954895D01*
X153454895Y-116109426D01*
X153303059Y-116248557D01*
X153137426Y-116388839D01*
X153135099Y-116390716D01*
X152972918Y-116515162D01*
X152796377Y-116641209D01*
X152793663Y-116643040D01*
X152621382Y-116752797D01*
X152435107Y-116863791D01*
X152431998Y-116865525D01*
X152250992Y-116959750D01*
X152056274Y-117054944D01*
X152052769Y-117056524D01*
X151864433Y-117134536D01*
X151662552Y-117213309D01*
X151658658Y-117214681D01*
X151464503Y-117275899D01*
X151256798Y-117337735D01*
X151252526Y-117338843D01*
X151054173Y-117382818D01*
X150841897Y-117427326D01*
X150837265Y-117428115D01*
X150636680Y-117454524D01*
X150420884Y-117481422D01*
X150415918Y-117481839D01*
X150217271Y-117490513D01*
X150000000Y-117499500D01*
X120000000Y-117499500D01*
X119782728Y-117490513D01*
X119584080Y-117481839D01*
X119579114Y-117481422D01*
X119363319Y-117454524D01*
X119162733Y-117428115D01*
X119158101Y-117427326D01*
X118945826Y-117382818D01*
X118747472Y-117338843D01*
X118743200Y-117337735D01*
X118535496Y-117275899D01*
X118341340Y-117214681D01*
X118337445Y-117213309D01*
X118135566Y-117134536D01*
X117947229Y-117056524D01*
X117943744Y-117054953D01*
X117884503Y-117025992D01*
X117749007Y-116959750D01*
X117568000Y-116865525D01*
X117564891Y-116863791D01*
X117378617Y-116752797D01*
X117206335Y-116643040D01*
X117203621Y-116641209D01*
X117027081Y-116515162D01*
X116864900Y-116390716D01*
X116862572Y-116388839D01*
X116696940Y-116248557D01*
X116545103Y-116109424D01*
X116390574Y-115954895D01*
X116251439Y-115803055D01*
X116111159Y-115637426D01*
X116109282Y-115635098D01*
X115984837Y-115472918D01*
X115858789Y-115296377D01*
X115856957Y-115293662D01*
X115747202Y-115121382D01*
X115636207Y-114935107D01*
X115634473Y-114931998D01*
X115540249Y-114750992D01*
X115481755Y-114631343D01*
X115445045Y-114556252D01*
X115443494Y-114552817D01*
X115365463Y-114364433D01*
X115286680Y-114162530D01*
X115285317Y-114158658D01*
X115224100Y-113964503D01*
X115175274Y-113800500D01*
X115162257Y-113756778D01*
X115161155Y-113752526D01*
X115134117Y-113630568D01*
X115117175Y-113554145D01*
X115111495Y-113527057D01*
X115072671Y-113341894D01*
X115071883Y-113337265D01*
X115047589Y-113152734D01*
X115045489Y-113136791D01*
X115018574Y-112920865D01*
X115018160Y-112915934D01*
X115009486Y-112717271D01*
X115000500Y-112500000D01*
X118694532Y-112500000D01*
X118714364Y-112726686D01*
X118714366Y-112726697D01*
X118773258Y-112946488D01*
X118773261Y-112946497D01*
X118869431Y-113152732D01*
X118869432Y-113152734D01*
X118999954Y-113339141D01*
X119160858Y-113500045D01*
X119160861Y-113500047D01*
X119347266Y-113630568D01*
X119553504Y-113726739D01*
X119773308Y-113785635D01*
X119943216Y-113800500D01*
X120056784Y-113800500D01*
X120226692Y-113785635D01*
X120446496Y-113726739D01*
X120652734Y-113630568D01*
X120839139Y-113500047D01*
X121000047Y-113339139D01*
X121130568Y-113152734D01*
X121226739Y-112946496D01*
X121285635Y-112726692D01*
X121305468Y-112500000D01*
X148694532Y-112500000D01*
X148714364Y-112726686D01*
X148714366Y-112726697D01*
X148773258Y-112946488D01*
X148773261Y-112946497D01*
X148869431Y-113152732D01*
X148869432Y-113152734D01*
X148999954Y-113339141D01*
X149160858Y-113500045D01*
X149160861Y-113500047D01*
X149347266Y-113630568D01*
X149553504Y-113726739D01*
X149773308Y-113785635D01*
X149943216Y-113800500D01*
X150056784Y-113800500D01*
X150226692Y-113785635D01*
X150446496Y-113726739D01*
X150652734Y-113630568D01*
X150839139Y-113500047D01*
X151000047Y-113339139D01*
X151130568Y-113152734D01*
X151226739Y-112946496D01*
X151285635Y-112726692D01*
X151305468Y-112500000D01*
X151285635Y-112273308D01*
X151226739Y-112053504D01*
X151130568Y-111847266D01*
X151000047Y-111660861D01*
X151000045Y-111660858D01*
X150839141Y-111499954D01*
X150652734Y-111369432D01*
X150652732Y-111369431D01*
X150446497Y-111273261D01*
X150446488Y-111273258D01*
X150226697Y-111214366D01*
X150226687Y-111214364D01*
X150056784Y-111199500D01*
X149943216Y-111199500D01*
X149773312Y-111214364D01*
X149773302Y-111214366D01*
X149553511Y-111273258D01*
X149553502Y-111273261D01*
X149347267Y-111369431D01*
X149347265Y-111369432D01*
X149160858Y-111499954D01*
X148999954Y-111660858D01*
X148869432Y-111847265D01*
X148869431Y-111847267D01*
X148773261Y-112053502D01*
X148773258Y-112053511D01*
X148714366Y-112273302D01*
X148714364Y-112273313D01*
X148694532Y-112499998D01*
X148694532Y-112500000D01*
X121305468Y-112500000D01*
X121285635Y-112273308D01*
X121226739Y-112053504D01*
X121130568Y-111847266D01*
X121000047Y-111660861D01*
X121000045Y-111660858D01*
X120839141Y-111499954D01*
X120652734Y-111369432D01*
X120652732Y-111369431D01*
X120446497Y-111273261D01*
X120446488Y-111273258D01*
X120226697Y-111214366D01*
X120226687Y-111214364D01*
X120056784Y-111199500D01*
X119943216Y-111199500D01*
X119773312Y-111214364D01*
X119773302Y-111214366D01*
X119553511Y-111273258D01*
X119553502Y-111273261D01*
X119347267Y-111369431D01*
X119347265Y-111369432D01*
X119160858Y-111499954D01*
X118999954Y-111660858D01*
X118869432Y-111847265D01*
X118869431Y-111847267D01*
X118773261Y-112053502D01*
X118773258Y-112053511D01*
X118714366Y-112273302D01*
X118714364Y-112273313D01*
X118694532Y-112499998D01*
X118694532Y-112500000D01*
X115000500Y-112500000D01*
X115000500Y-112499500D01*
X115000500Y-109700000D01*
X140194355Y-109700000D01*
X140214859Y-109868869D01*
X140214860Y-109868874D01*
X140275182Y-110027931D01*
X140337475Y-110118177D01*
X140371817Y-110167929D01*
X140477505Y-110261560D01*
X140499150Y-110280736D01*
X140649773Y-110359789D01*
X140649775Y-110359790D01*
X140814944Y-110400500D01*
X140985056Y-110400500D01*
X141150225Y-110359790D01*
X141229692Y-110318081D01*
X141300849Y-110280736D01*
X141300850Y-110280734D01*
X141300852Y-110280734D01*
X141428183Y-110167929D01*
X141524818Y-110027930D01*
X141585140Y-109868872D01*
X141605645Y-109700000D01*
X141585140Y-109531128D01*
X141524818Y-109372070D01*
X141524817Y-109372068D01*
X141472450Y-109296201D01*
X141450567Y-109229846D01*
X141450500Y-109225761D01*
X141450500Y-108774738D01*
X141470185Y-108707699D01*
X141472450Y-108704298D01*
X141486670Y-108683696D01*
X141524818Y-108628430D01*
X141585140Y-108469372D01*
X141605645Y-108300500D01*
X141585140Y-108131628D01*
X141524818Y-107972570D01*
X141428183Y-107832571D01*
X141300852Y-107719766D01*
X141300849Y-107719763D01*
X141150226Y-107640710D01*
X140985056Y-107600000D01*
X140814944Y-107600000D01*
X140649773Y-107640710D01*
X140499150Y-107719763D01*
X140371816Y-107832572D01*
X140275182Y-107972568D01*
X140214860Y-108131625D01*
X140214859Y-108131630D01*
X140194355Y-108300500D01*
X140214859Y-108469369D01*
X140214860Y-108469374D01*
X140275182Y-108628431D01*
X140327550Y-108704298D01*
X140349433Y-108770652D01*
X140349500Y-108774738D01*
X140349500Y-109225761D01*
X140329815Y-109292800D01*
X140327550Y-109296201D01*
X140275183Y-109372068D01*
X140275182Y-109372068D01*
X140214860Y-109531125D01*
X140214859Y-109531130D01*
X140194355Y-109700000D01*
X115000500Y-109700000D01*
X115000500Y-105799500D01*
X137994355Y-105799500D01*
X138014859Y-105968369D01*
X138014860Y-105968374D01*
X138075182Y-106127431D01*
X138137475Y-106217677D01*
X138171817Y-106267429D01*
X138277505Y-106361060D01*
X138299150Y-106380236D01*
X138449773Y-106459289D01*
X138449775Y-106459290D01*
X138614944Y-106500000D01*
X138785056Y-106500000D01*
X138950225Y-106459290D01*
X139029692Y-106417581D01*
X139100849Y-106380236D01*
X139100850Y-106380234D01*
X139100852Y-106380234D01*
X139228183Y-106267429D01*
X139324818Y-106127430D01*
X139385140Y-105968372D01*
X139405645Y-105799500D01*
X139385140Y-105630628D01*
X139324818Y-105471570D01*
X139282853Y-105410773D01*
X139260970Y-105344418D01*
X139260903Y-105340333D01*
X139260903Y-104474738D01*
X139280588Y-104407699D01*
X139282853Y-104404298D01*
X139297073Y-104383696D01*
X139335221Y-104328430D01*
X139395543Y-104169372D01*
X139416048Y-104000500D01*
X139395543Y-103831628D01*
X139335221Y-103672570D01*
X139238586Y-103532571D01*
X139111255Y-103419766D01*
X139111252Y-103419763D01*
X138960629Y-103340710D01*
X138795459Y-103300000D01*
X138625347Y-103300000D01*
X138460176Y-103340710D01*
X138309553Y-103419763D01*
X138182219Y-103532572D01*
X138085585Y-103672568D01*
X138025263Y-103831625D01*
X138025262Y-103831630D01*
X138004758Y-104000500D01*
X138025262Y-104169369D01*
X138025263Y-104169374D01*
X138085585Y-104328431D01*
X138137953Y-104404298D01*
X138159836Y-104470652D01*
X138159903Y-104474738D01*
X138159903Y-105310190D01*
X138140218Y-105377229D01*
X138137953Y-105380630D01*
X138075183Y-105471568D01*
X138075182Y-105471568D01*
X138014860Y-105630625D01*
X138014859Y-105630630D01*
X137994355Y-105799500D01*
X115000500Y-105799500D01*
X115000500Y-99450000D01*
X146669364Y-99450000D01*
X146726567Y-99663486D01*
X146726570Y-99663492D01*
X146826399Y-99877578D01*
X146961894Y-100071082D01*
X147128917Y-100238105D01*
X147308605Y-100363925D01*
X147352230Y-100418502D01*
X147359422Y-100488001D01*
X147327900Y-100550355D01*
X147267670Y-100585769D01*
X147237482Y-100589500D01*
X147105144Y-100589500D01*
X147105117Y-100589502D01*
X147080012Y-100592413D01*
X147080008Y-100592415D01*
X146977235Y-100637793D01*
X146897794Y-100717234D01*
X146852415Y-100820006D01*
X146852415Y-100820008D01*
X146849500Y-100845131D01*
X146849500Y-102634856D01*
X146849502Y-102634882D01*
X146852413Y-102659987D01*
X146852415Y-102659991D01*
X146897793Y-102762764D01*
X146897794Y-102762765D01*
X146977235Y-102842206D01*
X147080009Y-102887585D01*
X147105135Y-102890500D01*
X148894864Y-102890499D01*
X148894879Y-102890497D01*
X148894882Y-102890497D01*
X148919987Y-102887586D01*
X148919988Y-102887585D01*
X148919991Y-102887585D01*
X149022765Y-102842206D01*
X149102206Y-102762765D01*
X149147585Y-102659991D01*
X149150500Y-102634865D01*
X149150499Y-100845136D01*
X149150497Y-100845117D01*
X149147586Y-100820012D01*
X149147585Y-100820010D01*
X149147585Y-100820009D01*
X149102206Y-100717235D01*
X149022765Y-100637794D01*
X149022763Y-100637793D01*
X148919992Y-100592415D01*
X148894868Y-100589500D01*
X148762519Y-100589500D01*
X148695480Y-100569815D01*
X148649725Y-100517011D01*
X148639781Y-100447853D01*
X148668806Y-100384297D01*
X148691395Y-100363925D01*
X148871082Y-100238105D01*
X149038105Y-100071082D01*
X149173600Y-99877578D01*
X149273429Y-99663492D01*
X149273432Y-99663486D01*
X149330636Y-99450000D01*
X148433686Y-99450000D01*
X148459493Y-99409844D01*
X148500000Y-99271889D01*
X148500000Y-99128111D01*
X148459493Y-98990156D01*
X148433686Y-98950000D01*
X149330636Y-98950000D01*
X149330635Y-98949999D01*
X149273432Y-98736513D01*
X149273429Y-98736507D01*
X149173600Y-98522422D01*
X149173599Y-98522420D01*
X149038113Y-98328926D01*
X149038108Y-98328920D01*
X148871082Y-98161894D01*
X148677578Y-98026399D01*
X148463492Y-97926570D01*
X148463486Y-97926567D01*
X148250000Y-97869364D01*
X148250000Y-98764498D01*
X148142315Y-98715320D01*
X148035763Y-98700000D01*
X147964237Y-98700000D01*
X147857685Y-98715320D01*
X147750000Y-98764498D01*
X147750000Y-97869364D01*
X147749999Y-97869364D01*
X147536513Y-97926567D01*
X147536507Y-97926570D01*
X147322422Y-98026399D01*
X147322420Y-98026400D01*
X147128926Y-98161886D01*
X147128920Y-98161891D01*
X146961891Y-98328920D01*
X146961886Y-98328926D01*
X146826400Y-98522420D01*
X146826399Y-98522422D01*
X146726570Y-98736507D01*
X146726567Y-98736513D01*
X146669364Y-98949999D01*
X146669364Y-98950000D01*
X147566314Y-98950000D01*
X147540507Y-98990156D01*
X147500000Y-99128111D01*
X147500000Y-99271889D01*
X147540507Y-99409844D01*
X147566314Y-99450000D01*
X146669364Y-99450000D01*
X115000500Y-99450000D01*
X115000500Y-80000000D01*
X118694532Y-80000000D01*
X118714364Y-80226686D01*
X118714366Y-80226697D01*
X118773258Y-80446488D01*
X118773261Y-80446497D01*
X118869431Y-80652732D01*
X118869432Y-80652734D01*
X118999954Y-80839141D01*
X119160858Y-81000045D01*
X119160861Y-81000047D01*
X119347266Y-81130568D01*
X119553504Y-81226739D01*
X119773308Y-81285635D01*
X119943216Y-81300500D01*
X120056784Y-81300500D01*
X120226692Y-81285635D01*
X120446496Y-81226739D01*
X120652734Y-81130568D01*
X120839139Y-81000047D01*
X121000047Y-80839139D01*
X121130568Y-80652734D01*
X121226739Y-80446496D01*
X121285635Y-80226692D01*
X121305468Y-80000000D01*
X148694532Y-80000000D01*
X148714364Y-80226686D01*
X148714366Y-80226697D01*
X148773258Y-80446488D01*
X148773261Y-80446497D01*
X148869431Y-80652732D01*
X148869432Y-80652734D01*
X148999954Y-80839141D01*
X149160858Y-81000045D01*
X149160861Y-81000047D01*
X149347266Y-81130568D01*
X149553504Y-81226739D01*
X149773308Y-81285635D01*
X149943216Y-81300500D01*
X150056784Y-81300500D01*
X150226692Y-81285635D01*
X150446496Y-81226739D01*
X150652734Y-81130568D01*
X150839139Y-81000047D01*
X151000047Y-80839139D01*
X151130568Y-80652734D01*
X151226739Y-80446496D01*
X151285635Y-80226692D01*
X151305468Y-80000000D01*
X151305459Y-79999901D01*
X151287373Y-79793178D01*
X151285635Y-79773308D01*
X151226739Y-79553504D01*
X151130568Y-79347266D01*
X151000047Y-79160861D01*
X151000045Y-79160858D01*
X150839141Y-78999954D01*
X150652734Y-78869432D01*
X150652732Y-78869431D01*
X150446497Y-78773261D01*
X150446488Y-78773258D01*
X150226697Y-78714366D01*
X150226687Y-78714364D01*
X150056784Y-78699500D01*
X149943216Y-78699500D01*
X149773312Y-78714364D01*
X149773302Y-78714366D01*
X149553511Y-78773258D01*
X149553502Y-78773261D01*
X149347267Y-78869431D01*
X149347265Y-78869432D01*
X149160858Y-78999954D01*
X148999954Y-79160858D01*
X148869432Y-79347265D01*
X148869431Y-79347267D01*
X148773261Y-79553502D01*
X148773258Y-79553511D01*
X148714366Y-79773302D01*
X148714364Y-79773313D01*
X148694532Y-79999998D01*
X148694532Y-80000000D01*
X121305468Y-80000000D01*
X121305459Y-79999901D01*
X121287373Y-79793178D01*
X121285635Y-79773308D01*
X121226739Y-79553504D01*
X121130568Y-79347266D01*
X121000047Y-79160861D01*
X121000045Y-79160858D01*
X120839141Y-78999954D01*
X120652734Y-78869432D01*
X120652732Y-78869431D01*
X120446497Y-78773261D01*
X120446488Y-78773258D01*
X120226697Y-78714366D01*
X120226687Y-78714364D01*
X120056784Y-78699500D01*
X119943216Y-78699500D01*
X119773312Y-78714364D01*
X119773302Y-78714366D01*
X119553511Y-78773258D01*
X119553502Y-78773261D01*
X119347267Y-78869431D01*
X119347265Y-78869432D01*
X119160858Y-78999954D01*
X118999954Y-79160858D01*
X118869432Y-79347265D01*
X118869431Y-79347267D01*
X118773261Y-79553502D01*
X118773258Y-79553511D01*
X118714366Y-79773302D01*
X118714364Y-79773313D01*
X118694532Y-79999998D01*
X118694532Y-80000000D01*
X115000500Y-80000000D01*
X115009493Y-79782569D01*
X115018160Y-79584061D01*
X115018574Y-79579138D01*
X115045487Y-79363223D01*
X115071884Y-79162726D01*
X115072669Y-79158114D01*
X115117191Y-78945778D01*
X115161160Y-78747451D01*
X115162253Y-78743235D01*
X115224112Y-78535457D01*
X115285324Y-78341320D01*
X115286673Y-78337488D01*
X115365469Y-78135551D01*
X115443499Y-77947170D01*
X115445033Y-77943771D01*
X115514381Y-77801920D01*
X115540249Y-77749007D01*
X115573419Y-77685284D01*
X115634494Y-77567960D01*
X115636207Y-77564891D01*
X115747211Y-77378601D01*
X115856972Y-77206313D01*
X115858765Y-77203656D01*
X115984856Y-77027054D01*
X116109313Y-76864861D01*
X116111135Y-76862601D01*
X116251448Y-76696933D01*
X116390563Y-76545115D01*
X116545115Y-76390563D01*
X116696933Y-76251448D01*
X116862601Y-76111135D01*
X116864861Y-76109313D01*
X117027054Y-75984856D01*
X117203656Y-75858765D01*
X117206313Y-75856972D01*
X117378601Y-75747211D01*
X117564900Y-75636201D01*
X117567960Y-75634494D01*
X117685284Y-75573419D01*
X117749007Y-75540249D01*
X117823655Y-75503755D01*
X117943771Y-75445033D01*
X117947170Y-75443499D01*
X118135551Y-75365469D01*
X118337488Y-75286673D01*
X118341320Y-75285324D01*
X118535457Y-75224112D01*
X118743235Y-75162253D01*
X118747451Y-75161160D01*
X118945778Y-75117191D01*
X119158114Y-75072669D01*
X119162726Y-75071884D01*
X119363223Y-75045487D01*
X119579138Y-75018574D01*
X119584061Y-75018160D01*
X119782569Y-75009493D01*
X120000000Y-75000500D01*
X120000500Y-75000500D01*
X149999500Y-75000500D01*
X150000000Y-75000500D01*
X150217318Y-75009488D01*
G37*
%TD.AperFunction*%
%TD*%
M02*
