%TF.GenerationSoftware,KiCad,Pcbnew,7.0.8*%
%TF.CreationDate,2024-09-28T20:52:04-07:00*%
%TF.ProjectId,proves_pcb_challenge,70726f76-6573-45f7-9063-625f6368616c,rev?*%
%TF.SameCoordinates,Original*%
%TF.FileFunction,Legend,Top*%
%TF.FilePolarity,Positive*%
%FSLAX46Y46*%
G04 Gerber Fmt 4.6, Leading zero omitted, Abs format (unit mm)*
G04 Created by KiCad (PCBNEW 7.0.8) date 2024-09-28 20:52:04*
%MOMM*%
%LPD*%
G01*
G04 APERTURE LIST*
%ADD10C,0.300000*%
%ADD11C,0.200000*%
%ADD12C,0.150000*%
%ADD13C,0.250000*%
%ADD14C,0.120000*%
G04 APERTURE END LIST*
D10*
X126950828Y-79870489D02*
X128165114Y-79870489D01*
X128165114Y-79870489D02*
X128307971Y-79799060D01*
X128307971Y-79799060D02*
X128379400Y-79727632D01*
X128379400Y-79727632D02*
X128450828Y-79584774D01*
X128450828Y-79584774D02*
X128450828Y-79299060D01*
X128450828Y-79299060D02*
X128379400Y-79156203D01*
X128379400Y-79156203D02*
X128307971Y-79084774D01*
X128307971Y-79084774D02*
X128165114Y-79013346D01*
X128165114Y-79013346D02*
X126950828Y-79013346D01*
X128379400Y-78370488D02*
X128450828Y-78156203D01*
X128450828Y-78156203D02*
X128450828Y-77799060D01*
X128450828Y-77799060D02*
X128379400Y-77656203D01*
X128379400Y-77656203D02*
X128307971Y-77584774D01*
X128307971Y-77584774D02*
X128165114Y-77513345D01*
X128165114Y-77513345D02*
X128022257Y-77513345D01*
X128022257Y-77513345D02*
X127879400Y-77584774D01*
X127879400Y-77584774D02*
X127807971Y-77656203D01*
X127807971Y-77656203D02*
X127736542Y-77799060D01*
X127736542Y-77799060D02*
X127665114Y-78084774D01*
X127665114Y-78084774D02*
X127593685Y-78227631D01*
X127593685Y-78227631D02*
X127522257Y-78299060D01*
X127522257Y-78299060D02*
X127379400Y-78370488D01*
X127379400Y-78370488D02*
X127236542Y-78370488D01*
X127236542Y-78370488D02*
X127093685Y-78299060D01*
X127093685Y-78299060D02*
X127022257Y-78227631D01*
X127022257Y-78227631D02*
X126950828Y-78084774D01*
X126950828Y-78084774D02*
X126950828Y-77727631D01*
X126950828Y-77727631D02*
X127022257Y-77513345D01*
X127665114Y-76370489D02*
X127736542Y-76156203D01*
X127736542Y-76156203D02*
X127807971Y-76084774D01*
X127807971Y-76084774D02*
X127950828Y-76013346D01*
X127950828Y-76013346D02*
X128165114Y-76013346D01*
X128165114Y-76013346D02*
X128307971Y-76084774D01*
X128307971Y-76084774D02*
X128379400Y-76156203D01*
X128379400Y-76156203D02*
X128450828Y-76299060D01*
X128450828Y-76299060D02*
X128450828Y-76870489D01*
X128450828Y-76870489D02*
X126950828Y-76870489D01*
X126950828Y-76870489D02*
X126950828Y-76370489D01*
X126950828Y-76370489D02*
X127022257Y-76227632D01*
X127022257Y-76227632D02*
X127093685Y-76156203D01*
X127093685Y-76156203D02*
X127236542Y-76084774D01*
X127236542Y-76084774D02*
X127379400Y-76084774D01*
X127379400Y-76084774D02*
X127522257Y-76156203D01*
X127522257Y-76156203D02*
X127593685Y-76227632D01*
X127593685Y-76227632D02*
X127665114Y-76370489D01*
X127665114Y-76370489D02*
X127665114Y-76870489D01*
D11*
X121781861Y-99304136D02*
X121841385Y-99125564D01*
X121841385Y-99125564D02*
X121900909Y-99066041D01*
X121900909Y-99066041D02*
X122019957Y-99006517D01*
X122019957Y-99006517D02*
X122198528Y-99006517D01*
X122198528Y-99006517D02*
X122317576Y-99066041D01*
X122317576Y-99066041D02*
X122377100Y-99125564D01*
X122377100Y-99125564D02*
X122436623Y-99244612D01*
X122436623Y-99244612D02*
X122436623Y-99720802D01*
X122436623Y-99720802D02*
X121186623Y-99720802D01*
X121186623Y-99720802D02*
X121186623Y-99304136D01*
X121186623Y-99304136D02*
X121246147Y-99185088D01*
X121246147Y-99185088D02*
X121305671Y-99125564D01*
X121305671Y-99125564D02*
X121424719Y-99066041D01*
X121424719Y-99066041D02*
X121543766Y-99066041D01*
X121543766Y-99066041D02*
X121662814Y-99125564D01*
X121662814Y-99125564D02*
X121722338Y-99185088D01*
X121722338Y-99185088D02*
X121781861Y-99304136D01*
X121781861Y-99304136D02*
X121781861Y-99720802D01*
X121186623Y-98232707D02*
X121186623Y-97994612D01*
X121186623Y-97994612D02*
X121246147Y-97875564D01*
X121246147Y-97875564D02*
X121365195Y-97756517D01*
X121365195Y-97756517D02*
X121603290Y-97696993D01*
X121603290Y-97696993D02*
X122019957Y-97696993D01*
X122019957Y-97696993D02*
X122258052Y-97756517D01*
X122258052Y-97756517D02*
X122377100Y-97875564D01*
X122377100Y-97875564D02*
X122436623Y-97994612D01*
X122436623Y-97994612D02*
X122436623Y-98232707D01*
X122436623Y-98232707D02*
X122377100Y-98351755D01*
X122377100Y-98351755D02*
X122258052Y-98470802D01*
X122258052Y-98470802D02*
X122019957Y-98530326D01*
X122019957Y-98530326D02*
X121603290Y-98530326D01*
X121603290Y-98530326D02*
X121365195Y-98470802D01*
X121365195Y-98470802D02*
X121246147Y-98351755D01*
X121246147Y-98351755D02*
X121186623Y-98232707D01*
X121186623Y-96923183D02*
X121186623Y-96685088D01*
X121186623Y-96685088D02*
X121246147Y-96566040D01*
X121246147Y-96566040D02*
X121365195Y-96446993D01*
X121365195Y-96446993D02*
X121603290Y-96387469D01*
X121603290Y-96387469D02*
X122019957Y-96387469D01*
X122019957Y-96387469D02*
X122258052Y-96446993D01*
X122258052Y-96446993D02*
X122377100Y-96566040D01*
X122377100Y-96566040D02*
X122436623Y-96685088D01*
X122436623Y-96685088D02*
X122436623Y-96923183D01*
X122436623Y-96923183D02*
X122377100Y-97042231D01*
X122377100Y-97042231D02*
X122258052Y-97161278D01*
X122258052Y-97161278D02*
X122019957Y-97220802D01*
X122019957Y-97220802D02*
X121603290Y-97220802D01*
X121603290Y-97220802D02*
X121365195Y-97161278D01*
X121365195Y-97161278D02*
X121246147Y-97042231D01*
X121246147Y-97042231D02*
X121186623Y-96923183D01*
X121186623Y-96030326D02*
X121186623Y-95316040D01*
X122436623Y-95673183D02*
X121186623Y-95673183D01*
X144563376Y-98843482D02*
X145158614Y-98426816D01*
X144563376Y-98129197D02*
X145813376Y-98129197D01*
X145813376Y-98129197D02*
X145813376Y-98605387D01*
X145813376Y-98605387D02*
X145753852Y-98724435D01*
X145753852Y-98724435D02*
X145694328Y-98783958D01*
X145694328Y-98783958D02*
X145575280Y-98843482D01*
X145575280Y-98843482D02*
X145396709Y-98843482D01*
X145396709Y-98843482D02*
X145277661Y-98783958D01*
X145277661Y-98783958D02*
X145218138Y-98724435D01*
X145218138Y-98724435D02*
X145158614Y-98605387D01*
X145158614Y-98605387D02*
X145158614Y-98129197D01*
X145218138Y-99379197D02*
X145218138Y-99795863D01*
X144563376Y-99974435D02*
X144563376Y-99379197D01*
X144563376Y-99379197D02*
X145813376Y-99379197D01*
X145813376Y-99379197D02*
X145813376Y-99974435D01*
X144622900Y-100450625D02*
X144563376Y-100629196D01*
X144563376Y-100629196D02*
X144563376Y-100926815D01*
X144563376Y-100926815D02*
X144622900Y-101045863D01*
X144622900Y-101045863D02*
X144682423Y-101105387D01*
X144682423Y-101105387D02*
X144801471Y-101164910D01*
X144801471Y-101164910D02*
X144920519Y-101164910D01*
X144920519Y-101164910D02*
X145039566Y-101105387D01*
X145039566Y-101105387D02*
X145099090Y-101045863D01*
X145099090Y-101045863D02*
X145158614Y-100926815D01*
X145158614Y-100926815D02*
X145218138Y-100688720D01*
X145218138Y-100688720D02*
X145277661Y-100569672D01*
X145277661Y-100569672D02*
X145337185Y-100510149D01*
X145337185Y-100510149D02*
X145456233Y-100450625D01*
X145456233Y-100450625D02*
X145575280Y-100450625D01*
X145575280Y-100450625D02*
X145694328Y-100510149D01*
X145694328Y-100510149D02*
X145753852Y-100569672D01*
X145753852Y-100569672D02*
X145813376Y-100688720D01*
X145813376Y-100688720D02*
X145813376Y-100986339D01*
X145813376Y-100986339D02*
X145753852Y-101164910D01*
X145218138Y-101700625D02*
X145218138Y-102117291D01*
X144563376Y-102295863D02*
X144563376Y-101700625D01*
X144563376Y-101700625D02*
X145813376Y-101700625D01*
X145813376Y-101700625D02*
X145813376Y-102295863D01*
X145813376Y-102653005D02*
X145813376Y-103367291D01*
X144563376Y-103010148D02*
X145813376Y-103010148D01*
X140542292Y-83086623D02*
X140780387Y-83086623D01*
X140780387Y-83086623D02*
X140899435Y-83146147D01*
X140899435Y-83146147D02*
X141018482Y-83265195D01*
X141018482Y-83265195D02*
X141078006Y-83503290D01*
X141078006Y-83503290D02*
X141078006Y-83919957D01*
X141078006Y-83919957D02*
X141018482Y-84158052D01*
X141018482Y-84158052D02*
X140899435Y-84277100D01*
X140899435Y-84277100D02*
X140780387Y-84336623D01*
X140780387Y-84336623D02*
X140542292Y-84336623D01*
X140542292Y-84336623D02*
X140423244Y-84277100D01*
X140423244Y-84277100D02*
X140304197Y-84158052D01*
X140304197Y-84158052D02*
X140244673Y-83919957D01*
X140244673Y-83919957D02*
X140244673Y-83503290D01*
X140244673Y-83503290D02*
X140304197Y-83265195D01*
X140304197Y-83265195D02*
X140423244Y-83146147D01*
X140423244Y-83146147D02*
X140542292Y-83086623D01*
X141613721Y-84336623D02*
X141613721Y-83086623D01*
X141613721Y-83086623D02*
X142328006Y-84336623D01*
X142328006Y-84336623D02*
X142328006Y-83086623D01*
D12*
X138933333Y-110854819D02*
X138600000Y-110378628D01*
X138361905Y-110854819D02*
X138361905Y-109854819D01*
X138361905Y-109854819D02*
X138742857Y-109854819D01*
X138742857Y-109854819D02*
X138838095Y-109902438D01*
X138838095Y-109902438D02*
X138885714Y-109950057D01*
X138885714Y-109950057D02*
X138933333Y-110045295D01*
X138933333Y-110045295D02*
X138933333Y-110188152D01*
X138933333Y-110188152D02*
X138885714Y-110283390D01*
X138885714Y-110283390D02*
X138838095Y-110331009D01*
X138838095Y-110331009D02*
X138742857Y-110378628D01*
X138742857Y-110378628D02*
X138361905Y-110378628D01*
X139504762Y-110283390D02*
X139409524Y-110235771D01*
X139409524Y-110235771D02*
X139361905Y-110188152D01*
X139361905Y-110188152D02*
X139314286Y-110092914D01*
X139314286Y-110092914D02*
X139314286Y-110045295D01*
X139314286Y-110045295D02*
X139361905Y-109950057D01*
X139361905Y-109950057D02*
X139409524Y-109902438D01*
X139409524Y-109902438D02*
X139504762Y-109854819D01*
X139504762Y-109854819D02*
X139695238Y-109854819D01*
X139695238Y-109854819D02*
X139790476Y-109902438D01*
X139790476Y-109902438D02*
X139838095Y-109950057D01*
X139838095Y-109950057D02*
X139885714Y-110045295D01*
X139885714Y-110045295D02*
X139885714Y-110092914D01*
X139885714Y-110092914D02*
X139838095Y-110188152D01*
X139838095Y-110188152D02*
X139790476Y-110235771D01*
X139790476Y-110235771D02*
X139695238Y-110283390D01*
X139695238Y-110283390D02*
X139504762Y-110283390D01*
X139504762Y-110283390D02*
X139409524Y-110331009D01*
X139409524Y-110331009D02*
X139361905Y-110378628D01*
X139361905Y-110378628D02*
X139314286Y-110473866D01*
X139314286Y-110473866D02*
X139314286Y-110664342D01*
X139314286Y-110664342D02*
X139361905Y-110759580D01*
X139361905Y-110759580D02*
X139409524Y-110807200D01*
X139409524Y-110807200D02*
X139504762Y-110854819D01*
X139504762Y-110854819D02*
X139695238Y-110854819D01*
X139695238Y-110854819D02*
X139790476Y-110807200D01*
X139790476Y-110807200D02*
X139838095Y-110759580D01*
X139838095Y-110759580D02*
X139885714Y-110664342D01*
X139885714Y-110664342D02*
X139885714Y-110473866D01*
X139885714Y-110473866D02*
X139838095Y-110378628D01*
X139838095Y-110378628D02*
X139790476Y-110331009D01*
X139790476Y-110331009D02*
X139695238Y-110283390D01*
D13*
X124458333Y-93824619D02*
X124125000Y-93348428D01*
X123886905Y-93824619D02*
X123886905Y-92824619D01*
X123886905Y-92824619D02*
X124267857Y-92824619D01*
X124267857Y-92824619D02*
X124363095Y-92872238D01*
X124363095Y-92872238D02*
X124410714Y-92919857D01*
X124410714Y-92919857D02*
X124458333Y-93015095D01*
X124458333Y-93015095D02*
X124458333Y-93157952D01*
X124458333Y-93157952D02*
X124410714Y-93253190D01*
X124410714Y-93253190D02*
X124363095Y-93300809D01*
X124363095Y-93300809D02*
X124267857Y-93348428D01*
X124267857Y-93348428D02*
X123886905Y-93348428D01*
X124934524Y-93824619D02*
X125125000Y-93824619D01*
X125125000Y-93824619D02*
X125220238Y-93777000D01*
X125220238Y-93777000D02*
X125267857Y-93729380D01*
X125267857Y-93729380D02*
X125363095Y-93586523D01*
X125363095Y-93586523D02*
X125410714Y-93396047D01*
X125410714Y-93396047D02*
X125410714Y-93015095D01*
X125410714Y-93015095D02*
X125363095Y-92919857D01*
X125363095Y-92919857D02*
X125315476Y-92872238D01*
X125315476Y-92872238D02*
X125220238Y-92824619D01*
X125220238Y-92824619D02*
X125029762Y-92824619D01*
X125029762Y-92824619D02*
X124934524Y-92872238D01*
X124934524Y-92872238D02*
X124886905Y-92919857D01*
X124886905Y-92919857D02*
X124839286Y-93015095D01*
X124839286Y-93015095D02*
X124839286Y-93253190D01*
X124839286Y-93253190D02*
X124886905Y-93348428D01*
X124886905Y-93348428D02*
X124934524Y-93396047D01*
X124934524Y-93396047D02*
X125029762Y-93443666D01*
X125029762Y-93443666D02*
X125220238Y-93443666D01*
X125220238Y-93443666D02*
X125315476Y-93396047D01*
X125315476Y-93396047D02*
X125363095Y-93348428D01*
X125363095Y-93348428D02*
X125410714Y-93253190D01*
D12*
X146133333Y-82704819D02*
X145800000Y-82228628D01*
X145561905Y-82704819D02*
X145561905Y-81704819D01*
X145561905Y-81704819D02*
X145942857Y-81704819D01*
X145942857Y-81704819D02*
X146038095Y-81752438D01*
X146038095Y-81752438D02*
X146085714Y-81800057D01*
X146085714Y-81800057D02*
X146133333Y-81895295D01*
X146133333Y-81895295D02*
X146133333Y-82038152D01*
X146133333Y-82038152D02*
X146085714Y-82133390D01*
X146085714Y-82133390D02*
X146038095Y-82181009D01*
X146038095Y-82181009D02*
X145942857Y-82228628D01*
X145942857Y-82228628D02*
X145561905Y-82228628D01*
X147085714Y-82704819D02*
X146514286Y-82704819D01*
X146800000Y-82704819D02*
X146800000Y-81704819D01*
X146800000Y-81704819D02*
X146704762Y-81847676D01*
X146704762Y-81847676D02*
X146609524Y-81942914D01*
X146609524Y-81942914D02*
X146514286Y-81990533D01*
X131933333Y-108054819D02*
X131600000Y-107578628D01*
X131361905Y-108054819D02*
X131361905Y-107054819D01*
X131361905Y-107054819D02*
X131742857Y-107054819D01*
X131742857Y-107054819D02*
X131838095Y-107102438D01*
X131838095Y-107102438D02*
X131885714Y-107150057D01*
X131885714Y-107150057D02*
X131933333Y-107245295D01*
X131933333Y-107245295D02*
X131933333Y-107388152D01*
X131933333Y-107388152D02*
X131885714Y-107483390D01*
X131885714Y-107483390D02*
X131838095Y-107531009D01*
X131838095Y-107531009D02*
X131742857Y-107578628D01*
X131742857Y-107578628D02*
X131361905Y-107578628D01*
X132266667Y-107054819D02*
X132885714Y-107054819D01*
X132885714Y-107054819D02*
X132552381Y-107435771D01*
X132552381Y-107435771D02*
X132695238Y-107435771D01*
X132695238Y-107435771D02*
X132790476Y-107483390D01*
X132790476Y-107483390D02*
X132838095Y-107531009D01*
X132838095Y-107531009D02*
X132885714Y-107626247D01*
X132885714Y-107626247D02*
X132885714Y-107864342D01*
X132885714Y-107864342D02*
X132838095Y-107959580D01*
X132838095Y-107959580D02*
X132790476Y-108007200D01*
X132790476Y-108007200D02*
X132695238Y-108054819D01*
X132695238Y-108054819D02*
X132409524Y-108054819D01*
X132409524Y-108054819D02*
X132314286Y-108007200D01*
X132314286Y-108007200D02*
X132266667Y-107959580D01*
X140107142Y-99659580D02*
X140059523Y-99707200D01*
X140059523Y-99707200D02*
X139916666Y-99754819D01*
X139916666Y-99754819D02*
X139821428Y-99754819D01*
X139821428Y-99754819D02*
X139678571Y-99707200D01*
X139678571Y-99707200D02*
X139583333Y-99611961D01*
X139583333Y-99611961D02*
X139535714Y-99516723D01*
X139535714Y-99516723D02*
X139488095Y-99326247D01*
X139488095Y-99326247D02*
X139488095Y-99183390D01*
X139488095Y-99183390D02*
X139535714Y-98992914D01*
X139535714Y-98992914D02*
X139583333Y-98897676D01*
X139583333Y-98897676D02*
X139678571Y-98802438D01*
X139678571Y-98802438D02*
X139821428Y-98754819D01*
X139821428Y-98754819D02*
X139916666Y-98754819D01*
X139916666Y-98754819D02*
X140059523Y-98802438D01*
X140059523Y-98802438D02*
X140107142Y-98850057D01*
X141059523Y-99754819D02*
X140488095Y-99754819D01*
X140773809Y-99754819D02*
X140773809Y-98754819D01*
X140773809Y-98754819D02*
X140678571Y-98897676D01*
X140678571Y-98897676D02*
X140583333Y-98992914D01*
X140583333Y-98992914D02*
X140488095Y-99040533D01*
X141392857Y-98754819D02*
X142011904Y-98754819D01*
X142011904Y-98754819D02*
X141678571Y-99135771D01*
X141678571Y-99135771D02*
X141821428Y-99135771D01*
X141821428Y-99135771D02*
X141916666Y-99183390D01*
X141916666Y-99183390D02*
X141964285Y-99231009D01*
X141964285Y-99231009D02*
X142011904Y-99326247D01*
X142011904Y-99326247D02*
X142011904Y-99564342D01*
X142011904Y-99564342D02*
X141964285Y-99659580D01*
X141964285Y-99659580D02*
X141916666Y-99707200D01*
X141916666Y-99707200D02*
X141821428Y-99754819D01*
X141821428Y-99754819D02*
X141535714Y-99754819D01*
X141535714Y-99754819D02*
X141440476Y-99707200D01*
X141440476Y-99707200D02*
X141392857Y-99659580D01*
X139133333Y-107804819D02*
X138800000Y-107328628D01*
X138561905Y-107804819D02*
X138561905Y-106804819D01*
X138561905Y-106804819D02*
X138942857Y-106804819D01*
X138942857Y-106804819D02*
X139038095Y-106852438D01*
X139038095Y-106852438D02*
X139085714Y-106900057D01*
X139085714Y-106900057D02*
X139133333Y-106995295D01*
X139133333Y-106995295D02*
X139133333Y-107138152D01*
X139133333Y-107138152D02*
X139085714Y-107233390D01*
X139085714Y-107233390D02*
X139038095Y-107281009D01*
X139038095Y-107281009D02*
X138942857Y-107328628D01*
X138942857Y-107328628D02*
X138561905Y-107328628D01*
X139990476Y-106804819D02*
X139800000Y-106804819D01*
X139800000Y-106804819D02*
X139704762Y-106852438D01*
X139704762Y-106852438D02*
X139657143Y-106900057D01*
X139657143Y-106900057D02*
X139561905Y-107042914D01*
X139561905Y-107042914D02*
X139514286Y-107233390D01*
X139514286Y-107233390D02*
X139514286Y-107614342D01*
X139514286Y-107614342D02*
X139561905Y-107709580D01*
X139561905Y-107709580D02*
X139609524Y-107757200D01*
X139609524Y-107757200D02*
X139704762Y-107804819D01*
X139704762Y-107804819D02*
X139895238Y-107804819D01*
X139895238Y-107804819D02*
X139990476Y-107757200D01*
X139990476Y-107757200D02*
X140038095Y-107709580D01*
X140038095Y-107709580D02*
X140085714Y-107614342D01*
X140085714Y-107614342D02*
X140085714Y-107376247D01*
X140085714Y-107376247D02*
X140038095Y-107281009D01*
X140038095Y-107281009D02*
X139990476Y-107233390D01*
X139990476Y-107233390D02*
X139895238Y-107185771D01*
X139895238Y-107185771D02*
X139704762Y-107185771D01*
X139704762Y-107185771D02*
X139609524Y-107233390D01*
X139609524Y-107233390D02*
X139561905Y-107281009D01*
X139561905Y-107281009D02*
X139514286Y-107376247D01*
X132883333Y-91879819D02*
X132550000Y-91403628D01*
X132311905Y-91879819D02*
X132311905Y-90879819D01*
X132311905Y-90879819D02*
X132692857Y-90879819D01*
X132692857Y-90879819D02*
X132788095Y-90927438D01*
X132788095Y-90927438D02*
X132835714Y-90975057D01*
X132835714Y-90975057D02*
X132883333Y-91070295D01*
X132883333Y-91070295D02*
X132883333Y-91213152D01*
X132883333Y-91213152D02*
X132835714Y-91308390D01*
X132835714Y-91308390D02*
X132788095Y-91356009D01*
X132788095Y-91356009D02*
X132692857Y-91403628D01*
X132692857Y-91403628D02*
X132311905Y-91403628D01*
X133788095Y-90879819D02*
X133311905Y-90879819D01*
X133311905Y-90879819D02*
X133264286Y-91356009D01*
X133264286Y-91356009D02*
X133311905Y-91308390D01*
X133311905Y-91308390D02*
X133407143Y-91260771D01*
X133407143Y-91260771D02*
X133645238Y-91260771D01*
X133645238Y-91260771D02*
X133740476Y-91308390D01*
X133740476Y-91308390D02*
X133788095Y-91356009D01*
X133788095Y-91356009D02*
X133835714Y-91451247D01*
X133835714Y-91451247D02*
X133835714Y-91689342D01*
X133835714Y-91689342D02*
X133788095Y-91784580D01*
X133788095Y-91784580D02*
X133740476Y-91832200D01*
X133740476Y-91832200D02*
X133645238Y-91879819D01*
X133645238Y-91879819D02*
X133407143Y-91879819D01*
X133407143Y-91879819D02*
X133311905Y-91832200D01*
X133311905Y-91832200D02*
X133264286Y-91784580D01*
X134283333Y-96734580D02*
X134235714Y-96782200D01*
X134235714Y-96782200D02*
X134092857Y-96829819D01*
X134092857Y-96829819D02*
X133997619Y-96829819D01*
X133997619Y-96829819D02*
X133854762Y-96782200D01*
X133854762Y-96782200D02*
X133759524Y-96686961D01*
X133759524Y-96686961D02*
X133711905Y-96591723D01*
X133711905Y-96591723D02*
X133664286Y-96401247D01*
X133664286Y-96401247D02*
X133664286Y-96258390D01*
X133664286Y-96258390D02*
X133711905Y-96067914D01*
X133711905Y-96067914D02*
X133759524Y-95972676D01*
X133759524Y-95972676D02*
X133854762Y-95877438D01*
X133854762Y-95877438D02*
X133997619Y-95829819D01*
X133997619Y-95829819D02*
X134092857Y-95829819D01*
X134092857Y-95829819D02*
X134235714Y-95877438D01*
X134235714Y-95877438D02*
X134283333Y-95925057D01*
X134616667Y-95829819D02*
X135235714Y-95829819D01*
X135235714Y-95829819D02*
X134902381Y-96210771D01*
X134902381Y-96210771D02*
X135045238Y-96210771D01*
X135045238Y-96210771D02*
X135140476Y-96258390D01*
X135140476Y-96258390D02*
X135188095Y-96306009D01*
X135188095Y-96306009D02*
X135235714Y-96401247D01*
X135235714Y-96401247D02*
X135235714Y-96639342D01*
X135235714Y-96639342D02*
X135188095Y-96734580D01*
X135188095Y-96734580D02*
X135140476Y-96782200D01*
X135140476Y-96782200D02*
X135045238Y-96829819D01*
X135045238Y-96829819D02*
X134759524Y-96829819D01*
X134759524Y-96829819D02*
X134664286Y-96782200D01*
X134664286Y-96782200D02*
X134616667Y-96734580D01*
X143033333Y-85959580D02*
X142985714Y-86007200D01*
X142985714Y-86007200D02*
X142842857Y-86054819D01*
X142842857Y-86054819D02*
X142747619Y-86054819D01*
X142747619Y-86054819D02*
X142604762Y-86007200D01*
X142604762Y-86007200D02*
X142509524Y-85911961D01*
X142509524Y-85911961D02*
X142461905Y-85816723D01*
X142461905Y-85816723D02*
X142414286Y-85626247D01*
X142414286Y-85626247D02*
X142414286Y-85483390D01*
X142414286Y-85483390D02*
X142461905Y-85292914D01*
X142461905Y-85292914D02*
X142509524Y-85197676D01*
X142509524Y-85197676D02*
X142604762Y-85102438D01*
X142604762Y-85102438D02*
X142747619Y-85054819D01*
X142747619Y-85054819D02*
X142842857Y-85054819D01*
X142842857Y-85054819D02*
X142985714Y-85102438D01*
X142985714Y-85102438D02*
X143033333Y-85150057D01*
X143414286Y-85150057D02*
X143461905Y-85102438D01*
X143461905Y-85102438D02*
X143557143Y-85054819D01*
X143557143Y-85054819D02*
X143795238Y-85054819D01*
X143795238Y-85054819D02*
X143890476Y-85102438D01*
X143890476Y-85102438D02*
X143938095Y-85150057D01*
X143938095Y-85150057D02*
X143985714Y-85245295D01*
X143985714Y-85245295D02*
X143985714Y-85340533D01*
X143985714Y-85340533D02*
X143938095Y-85483390D01*
X143938095Y-85483390D02*
X143366667Y-86054819D01*
X143366667Y-86054819D02*
X143985714Y-86054819D01*
X140583333Y-102334580D02*
X140535714Y-102382200D01*
X140535714Y-102382200D02*
X140392857Y-102429819D01*
X140392857Y-102429819D02*
X140297619Y-102429819D01*
X140297619Y-102429819D02*
X140154762Y-102382200D01*
X140154762Y-102382200D02*
X140059524Y-102286961D01*
X140059524Y-102286961D02*
X140011905Y-102191723D01*
X140011905Y-102191723D02*
X139964286Y-102001247D01*
X139964286Y-102001247D02*
X139964286Y-101858390D01*
X139964286Y-101858390D02*
X140011905Y-101667914D01*
X140011905Y-101667914D02*
X140059524Y-101572676D01*
X140059524Y-101572676D02*
X140154762Y-101477438D01*
X140154762Y-101477438D02*
X140297619Y-101429819D01*
X140297619Y-101429819D02*
X140392857Y-101429819D01*
X140392857Y-101429819D02*
X140535714Y-101477438D01*
X140535714Y-101477438D02*
X140583333Y-101525057D01*
X141154762Y-101858390D02*
X141059524Y-101810771D01*
X141059524Y-101810771D02*
X141011905Y-101763152D01*
X141011905Y-101763152D02*
X140964286Y-101667914D01*
X140964286Y-101667914D02*
X140964286Y-101620295D01*
X140964286Y-101620295D02*
X141011905Y-101525057D01*
X141011905Y-101525057D02*
X141059524Y-101477438D01*
X141059524Y-101477438D02*
X141154762Y-101429819D01*
X141154762Y-101429819D02*
X141345238Y-101429819D01*
X141345238Y-101429819D02*
X141440476Y-101477438D01*
X141440476Y-101477438D02*
X141488095Y-101525057D01*
X141488095Y-101525057D02*
X141535714Y-101620295D01*
X141535714Y-101620295D02*
X141535714Y-101667914D01*
X141535714Y-101667914D02*
X141488095Y-101763152D01*
X141488095Y-101763152D02*
X141440476Y-101810771D01*
X141440476Y-101810771D02*
X141345238Y-101858390D01*
X141345238Y-101858390D02*
X141154762Y-101858390D01*
X141154762Y-101858390D02*
X141059524Y-101906009D01*
X141059524Y-101906009D02*
X141011905Y-101953628D01*
X141011905Y-101953628D02*
X140964286Y-102048866D01*
X140964286Y-102048866D02*
X140964286Y-102239342D01*
X140964286Y-102239342D02*
X141011905Y-102334580D01*
X141011905Y-102334580D02*
X141059524Y-102382200D01*
X141059524Y-102382200D02*
X141154762Y-102429819D01*
X141154762Y-102429819D02*
X141345238Y-102429819D01*
X141345238Y-102429819D02*
X141440476Y-102382200D01*
X141440476Y-102382200D02*
X141488095Y-102334580D01*
X141488095Y-102334580D02*
X141535714Y-102239342D01*
X141535714Y-102239342D02*
X141535714Y-102048866D01*
X141535714Y-102048866D02*
X141488095Y-101953628D01*
X141488095Y-101953628D02*
X141440476Y-101906009D01*
X141440476Y-101906009D02*
X141345238Y-101858390D01*
X122338095Y-83854819D02*
X122338095Y-84664342D01*
X122338095Y-84664342D02*
X122385714Y-84759580D01*
X122385714Y-84759580D02*
X122433333Y-84807200D01*
X122433333Y-84807200D02*
X122528571Y-84854819D01*
X122528571Y-84854819D02*
X122719047Y-84854819D01*
X122719047Y-84854819D02*
X122814285Y-84807200D01*
X122814285Y-84807200D02*
X122861904Y-84759580D01*
X122861904Y-84759580D02*
X122909523Y-84664342D01*
X122909523Y-84664342D02*
X122909523Y-83854819D01*
X123290476Y-83854819D02*
X123909523Y-83854819D01*
X123909523Y-83854819D02*
X123576190Y-84235771D01*
X123576190Y-84235771D02*
X123719047Y-84235771D01*
X123719047Y-84235771D02*
X123814285Y-84283390D01*
X123814285Y-84283390D02*
X123861904Y-84331009D01*
X123861904Y-84331009D02*
X123909523Y-84426247D01*
X123909523Y-84426247D02*
X123909523Y-84664342D01*
X123909523Y-84664342D02*
X123861904Y-84759580D01*
X123861904Y-84759580D02*
X123814285Y-84807200D01*
X123814285Y-84807200D02*
X123719047Y-84854819D01*
X123719047Y-84854819D02*
X123433333Y-84854819D01*
X123433333Y-84854819D02*
X123338095Y-84807200D01*
X123338095Y-84807200D02*
X123290476Y-84759580D01*
X140763095Y-106504819D02*
X140763095Y-107314342D01*
X140763095Y-107314342D02*
X140810714Y-107409580D01*
X140810714Y-107409580D02*
X140858333Y-107457200D01*
X140858333Y-107457200D02*
X140953571Y-107504819D01*
X140953571Y-107504819D02*
X141144047Y-107504819D01*
X141144047Y-107504819D02*
X141239285Y-107457200D01*
X141239285Y-107457200D02*
X141286904Y-107409580D01*
X141286904Y-107409580D02*
X141334523Y-107314342D01*
X141334523Y-107314342D02*
X141334523Y-106504819D01*
X142239285Y-106838152D02*
X142239285Y-107504819D01*
X142001190Y-106457200D02*
X141763095Y-107171485D01*
X141763095Y-107171485D02*
X142382142Y-107171485D01*
X137008333Y-94459580D02*
X136960714Y-94507200D01*
X136960714Y-94507200D02*
X136817857Y-94554819D01*
X136817857Y-94554819D02*
X136722619Y-94554819D01*
X136722619Y-94554819D02*
X136579762Y-94507200D01*
X136579762Y-94507200D02*
X136484524Y-94411961D01*
X136484524Y-94411961D02*
X136436905Y-94316723D01*
X136436905Y-94316723D02*
X136389286Y-94126247D01*
X136389286Y-94126247D02*
X136389286Y-93983390D01*
X136389286Y-93983390D02*
X136436905Y-93792914D01*
X136436905Y-93792914D02*
X136484524Y-93697676D01*
X136484524Y-93697676D02*
X136579762Y-93602438D01*
X136579762Y-93602438D02*
X136722619Y-93554819D01*
X136722619Y-93554819D02*
X136817857Y-93554819D01*
X136817857Y-93554819D02*
X136960714Y-93602438D01*
X136960714Y-93602438D02*
X137008333Y-93650057D01*
X137865476Y-93554819D02*
X137675000Y-93554819D01*
X137675000Y-93554819D02*
X137579762Y-93602438D01*
X137579762Y-93602438D02*
X137532143Y-93650057D01*
X137532143Y-93650057D02*
X137436905Y-93792914D01*
X137436905Y-93792914D02*
X137389286Y-93983390D01*
X137389286Y-93983390D02*
X137389286Y-94364342D01*
X137389286Y-94364342D02*
X137436905Y-94459580D01*
X137436905Y-94459580D02*
X137484524Y-94507200D01*
X137484524Y-94507200D02*
X137579762Y-94554819D01*
X137579762Y-94554819D02*
X137770238Y-94554819D01*
X137770238Y-94554819D02*
X137865476Y-94507200D01*
X137865476Y-94507200D02*
X137913095Y-94459580D01*
X137913095Y-94459580D02*
X137960714Y-94364342D01*
X137960714Y-94364342D02*
X137960714Y-94126247D01*
X137960714Y-94126247D02*
X137913095Y-94031009D01*
X137913095Y-94031009D02*
X137865476Y-93983390D01*
X137865476Y-93983390D02*
X137770238Y-93935771D01*
X137770238Y-93935771D02*
X137579762Y-93935771D01*
X137579762Y-93935771D02*
X137484524Y-93983390D01*
X137484524Y-93983390D02*
X137436905Y-94031009D01*
X137436905Y-94031009D02*
X137389286Y-94126247D01*
X130857142Y-84759580D02*
X130809523Y-84807200D01*
X130809523Y-84807200D02*
X130666666Y-84854819D01*
X130666666Y-84854819D02*
X130571428Y-84854819D01*
X130571428Y-84854819D02*
X130428571Y-84807200D01*
X130428571Y-84807200D02*
X130333333Y-84711961D01*
X130333333Y-84711961D02*
X130285714Y-84616723D01*
X130285714Y-84616723D02*
X130238095Y-84426247D01*
X130238095Y-84426247D02*
X130238095Y-84283390D01*
X130238095Y-84283390D02*
X130285714Y-84092914D01*
X130285714Y-84092914D02*
X130333333Y-83997676D01*
X130333333Y-83997676D02*
X130428571Y-83902438D01*
X130428571Y-83902438D02*
X130571428Y-83854819D01*
X130571428Y-83854819D02*
X130666666Y-83854819D01*
X130666666Y-83854819D02*
X130809523Y-83902438D01*
X130809523Y-83902438D02*
X130857142Y-83950057D01*
X131809523Y-84854819D02*
X131238095Y-84854819D01*
X131523809Y-84854819D02*
X131523809Y-83854819D01*
X131523809Y-83854819D02*
X131428571Y-83997676D01*
X131428571Y-83997676D02*
X131333333Y-84092914D01*
X131333333Y-84092914D02*
X131238095Y-84140533D01*
X132666666Y-84188152D02*
X132666666Y-84854819D01*
X132428571Y-83807200D02*
X132190476Y-84521485D01*
X132190476Y-84521485D02*
X132809523Y-84521485D01*
X137433333Y-108559580D02*
X137385714Y-108607200D01*
X137385714Y-108607200D02*
X137242857Y-108654819D01*
X137242857Y-108654819D02*
X137147619Y-108654819D01*
X137147619Y-108654819D02*
X137004762Y-108607200D01*
X137004762Y-108607200D02*
X136909524Y-108511961D01*
X136909524Y-108511961D02*
X136861905Y-108416723D01*
X136861905Y-108416723D02*
X136814286Y-108226247D01*
X136814286Y-108226247D02*
X136814286Y-108083390D01*
X136814286Y-108083390D02*
X136861905Y-107892914D01*
X136861905Y-107892914D02*
X136909524Y-107797676D01*
X136909524Y-107797676D02*
X137004762Y-107702438D01*
X137004762Y-107702438D02*
X137147619Y-107654819D01*
X137147619Y-107654819D02*
X137242857Y-107654819D01*
X137242857Y-107654819D02*
X137385714Y-107702438D01*
X137385714Y-107702438D02*
X137433333Y-107750057D01*
X138338095Y-107654819D02*
X137861905Y-107654819D01*
X137861905Y-107654819D02*
X137814286Y-108131009D01*
X137814286Y-108131009D02*
X137861905Y-108083390D01*
X137861905Y-108083390D02*
X137957143Y-108035771D01*
X137957143Y-108035771D02*
X138195238Y-108035771D01*
X138195238Y-108035771D02*
X138290476Y-108083390D01*
X138290476Y-108083390D02*
X138338095Y-108131009D01*
X138338095Y-108131009D02*
X138385714Y-108226247D01*
X138385714Y-108226247D02*
X138385714Y-108464342D01*
X138385714Y-108464342D02*
X138338095Y-108559580D01*
X138338095Y-108559580D02*
X138290476Y-108607200D01*
X138290476Y-108607200D02*
X138195238Y-108654819D01*
X138195238Y-108654819D02*
X137957143Y-108654819D01*
X137957143Y-108654819D02*
X137861905Y-108607200D01*
X137861905Y-108607200D02*
X137814286Y-108559580D01*
X140182142Y-96559580D02*
X140134523Y-96607200D01*
X140134523Y-96607200D02*
X139991666Y-96654819D01*
X139991666Y-96654819D02*
X139896428Y-96654819D01*
X139896428Y-96654819D02*
X139753571Y-96607200D01*
X139753571Y-96607200D02*
X139658333Y-96511961D01*
X139658333Y-96511961D02*
X139610714Y-96416723D01*
X139610714Y-96416723D02*
X139563095Y-96226247D01*
X139563095Y-96226247D02*
X139563095Y-96083390D01*
X139563095Y-96083390D02*
X139610714Y-95892914D01*
X139610714Y-95892914D02*
X139658333Y-95797676D01*
X139658333Y-95797676D02*
X139753571Y-95702438D01*
X139753571Y-95702438D02*
X139896428Y-95654819D01*
X139896428Y-95654819D02*
X139991666Y-95654819D01*
X139991666Y-95654819D02*
X140134523Y-95702438D01*
X140134523Y-95702438D02*
X140182142Y-95750057D01*
X141134523Y-96654819D02*
X140563095Y-96654819D01*
X140848809Y-96654819D02*
X140848809Y-95654819D01*
X140848809Y-95654819D02*
X140753571Y-95797676D01*
X140753571Y-95797676D02*
X140658333Y-95892914D01*
X140658333Y-95892914D02*
X140563095Y-95940533D01*
X141515476Y-95750057D02*
X141563095Y-95702438D01*
X141563095Y-95702438D02*
X141658333Y-95654819D01*
X141658333Y-95654819D02*
X141896428Y-95654819D01*
X141896428Y-95654819D02*
X141991666Y-95702438D01*
X141991666Y-95702438D02*
X142039285Y-95750057D01*
X142039285Y-95750057D02*
X142086904Y-95845295D01*
X142086904Y-95845295D02*
X142086904Y-95940533D01*
X142086904Y-95940533D02*
X142039285Y-96083390D01*
X142039285Y-96083390D02*
X141467857Y-96654819D01*
X141467857Y-96654819D02*
X142086904Y-96654819D01*
X146511905Y-84304819D02*
X146511905Y-83304819D01*
X146511905Y-83304819D02*
X146750000Y-83304819D01*
X146750000Y-83304819D02*
X146892857Y-83352438D01*
X146892857Y-83352438D02*
X146988095Y-83447676D01*
X146988095Y-83447676D02*
X147035714Y-83542914D01*
X147035714Y-83542914D02*
X147083333Y-83733390D01*
X147083333Y-83733390D02*
X147083333Y-83876247D01*
X147083333Y-83876247D02*
X147035714Y-84066723D01*
X147035714Y-84066723D02*
X146988095Y-84161961D01*
X146988095Y-84161961D02*
X146892857Y-84257200D01*
X146892857Y-84257200D02*
X146750000Y-84304819D01*
X146750000Y-84304819D02*
X146511905Y-84304819D01*
X148035714Y-84304819D02*
X147464286Y-84304819D01*
X147750000Y-84304819D02*
X147750000Y-83304819D01*
X147750000Y-83304819D02*
X147654762Y-83447676D01*
X147654762Y-83447676D02*
X147559524Y-83542914D01*
X147559524Y-83542914D02*
X147464286Y-83590533D01*
X117733333Y-86754819D02*
X117400000Y-86278628D01*
X117161905Y-86754819D02*
X117161905Y-85754819D01*
X117161905Y-85754819D02*
X117542857Y-85754819D01*
X117542857Y-85754819D02*
X117638095Y-85802438D01*
X117638095Y-85802438D02*
X117685714Y-85850057D01*
X117685714Y-85850057D02*
X117733333Y-85945295D01*
X117733333Y-85945295D02*
X117733333Y-86088152D01*
X117733333Y-86088152D02*
X117685714Y-86183390D01*
X117685714Y-86183390D02*
X117638095Y-86231009D01*
X117638095Y-86231009D02*
X117542857Y-86278628D01*
X117542857Y-86278628D02*
X117161905Y-86278628D01*
X118114286Y-85850057D02*
X118161905Y-85802438D01*
X118161905Y-85802438D02*
X118257143Y-85754819D01*
X118257143Y-85754819D02*
X118495238Y-85754819D01*
X118495238Y-85754819D02*
X118590476Y-85802438D01*
X118590476Y-85802438D02*
X118638095Y-85850057D01*
X118638095Y-85850057D02*
X118685714Y-85945295D01*
X118685714Y-85945295D02*
X118685714Y-86040533D01*
X118685714Y-86040533D02*
X118638095Y-86183390D01*
X118638095Y-86183390D02*
X118066667Y-86754819D01*
X118066667Y-86754819D02*
X118685714Y-86754819D01*
X127707142Y-98009580D02*
X127659523Y-98057200D01*
X127659523Y-98057200D02*
X127516666Y-98104819D01*
X127516666Y-98104819D02*
X127421428Y-98104819D01*
X127421428Y-98104819D02*
X127278571Y-98057200D01*
X127278571Y-98057200D02*
X127183333Y-97961961D01*
X127183333Y-97961961D02*
X127135714Y-97866723D01*
X127135714Y-97866723D02*
X127088095Y-97676247D01*
X127088095Y-97676247D02*
X127088095Y-97533390D01*
X127088095Y-97533390D02*
X127135714Y-97342914D01*
X127135714Y-97342914D02*
X127183333Y-97247676D01*
X127183333Y-97247676D02*
X127278571Y-97152438D01*
X127278571Y-97152438D02*
X127421428Y-97104819D01*
X127421428Y-97104819D02*
X127516666Y-97104819D01*
X127516666Y-97104819D02*
X127659523Y-97152438D01*
X127659523Y-97152438D02*
X127707142Y-97200057D01*
X128659523Y-98104819D02*
X128088095Y-98104819D01*
X128373809Y-98104819D02*
X128373809Y-97104819D01*
X128373809Y-97104819D02*
X128278571Y-97247676D01*
X128278571Y-97247676D02*
X128183333Y-97342914D01*
X128183333Y-97342914D02*
X128088095Y-97390533D01*
X129611904Y-98104819D02*
X129040476Y-98104819D01*
X129326190Y-98104819D02*
X129326190Y-97104819D01*
X129326190Y-97104819D02*
X129230952Y-97247676D01*
X129230952Y-97247676D02*
X129135714Y-97342914D01*
X129135714Y-97342914D02*
X129040476Y-97390533D01*
X142483333Y-102204819D02*
X142150000Y-101728628D01*
X141911905Y-102204819D02*
X141911905Y-101204819D01*
X141911905Y-101204819D02*
X142292857Y-101204819D01*
X142292857Y-101204819D02*
X142388095Y-101252438D01*
X142388095Y-101252438D02*
X142435714Y-101300057D01*
X142435714Y-101300057D02*
X142483333Y-101395295D01*
X142483333Y-101395295D02*
X142483333Y-101538152D01*
X142483333Y-101538152D02*
X142435714Y-101633390D01*
X142435714Y-101633390D02*
X142388095Y-101681009D01*
X142388095Y-101681009D02*
X142292857Y-101728628D01*
X142292857Y-101728628D02*
X141911905Y-101728628D01*
X142816667Y-101204819D02*
X143483333Y-101204819D01*
X143483333Y-101204819D02*
X143054762Y-102204819D01*
X137033333Y-91929819D02*
X136700000Y-91453628D01*
X136461905Y-91929819D02*
X136461905Y-90929819D01*
X136461905Y-90929819D02*
X136842857Y-90929819D01*
X136842857Y-90929819D02*
X136938095Y-90977438D01*
X136938095Y-90977438D02*
X136985714Y-91025057D01*
X136985714Y-91025057D02*
X137033333Y-91120295D01*
X137033333Y-91120295D02*
X137033333Y-91263152D01*
X137033333Y-91263152D02*
X136985714Y-91358390D01*
X136985714Y-91358390D02*
X136938095Y-91406009D01*
X136938095Y-91406009D02*
X136842857Y-91453628D01*
X136842857Y-91453628D02*
X136461905Y-91453628D01*
X137890476Y-91263152D02*
X137890476Y-91929819D01*
X137652381Y-90882200D02*
X137414286Y-91596485D01*
X137414286Y-91596485D02*
X138033333Y-91596485D01*
X137033333Y-88859580D02*
X136985714Y-88907200D01*
X136985714Y-88907200D02*
X136842857Y-88954819D01*
X136842857Y-88954819D02*
X136747619Y-88954819D01*
X136747619Y-88954819D02*
X136604762Y-88907200D01*
X136604762Y-88907200D02*
X136509524Y-88811961D01*
X136509524Y-88811961D02*
X136461905Y-88716723D01*
X136461905Y-88716723D02*
X136414286Y-88526247D01*
X136414286Y-88526247D02*
X136414286Y-88383390D01*
X136414286Y-88383390D02*
X136461905Y-88192914D01*
X136461905Y-88192914D02*
X136509524Y-88097676D01*
X136509524Y-88097676D02*
X136604762Y-88002438D01*
X136604762Y-88002438D02*
X136747619Y-87954819D01*
X136747619Y-87954819D02*
X136842857Y-87954819D01*
X136842857Y-87954819D02*
X136985714Y-88002438D01*
X136985714Y-88002438D02*
X137033333Y-88050057D01*
X137985714Y-88954819D02*
X137414286Y-88954819D01*
X137700000Y-88954819D02*
X137700000Y-87954819D01*
X137700000Y-87954819D02*
X137604762Y-88097676D01*
X137604762Y-88097676D02*
X137509524Y-88192914D01*
X137509524Y-88192914D02*
X137414286Y-88240533D01*
X134783333Y-94534580D02*
X134735714Y-94582200D01*
X134735714Y-94582200D02*
X134592857Y-94629819D01*
X134592857Y-94629819D02*
X134497619Y-94629819D01*
X134497619Y-94629819D02*
X134354762Y-94582200D01*
X134354762Y-94582200D02*
X134259524Y-94486961D01*
X134259524Y-94486961D02*
X134211905Y-94391723D01*
X134211905Y-94391723D02*
X134164286Y-94201247D01*
X134164286Y-94201247D02*
X134164286Y-94058390D01*
X134164286Y-94058390D02*
X134211905Y-93867914D01*
X134211905Y-93867914D02*
X134259524Y-93772676D01*
X134259524Y-93772676D02*
X134354762Y-93677438D01*
X134354762Y-93677438D02*
X134497619Y-93629819D01*
X134497619Y-93629819D02*
X134592857Y-93629819D01*
X134592857Y-93629819D02*
X134735714Y-93677438D01*
X134735714Y-93677438D02*
X134783333Y-93725057D01*
X135116667Y-93629819D02*
X135783333Y-93629819D01*
X135783333Y-93629819D02*
X135354762Y-94629819D01*
X128573809Y-113228628D02*
X128573809Y-113704819D01*
X128240476Y-112704819D02*
X128573809Y-113228628D01*
X128573809Y-113228628D02*
X128907142Y-112704819D01*
X129764285Y-113704819D02*
X129192857Y-113704819D01*
X129478571Y-113704819D02*
X129478571Y-112704819D01*
X129478571Y-112704819D02*
X129383333Y-112847676D01*
X129383333Y-112847676D02*
X129288095Y-112942914D01*
X129288095Y-112942914D02*
X129192857Y-112990533D01*
X127557142Y-105159580D02*
X127509523Y-105207200D01*
X127509523Y-105207200D02*
X127366666Y-105254819D01*
X127366666Y-105254819D02*
X127271428Y-105254819D01*
X127271428Y-105254819D02*
X127128571Y-105207200D01*
X127128571Y-105207200D02*
X127033333Y-105111961D01*
X127033333Y-105111961D02*
X126985714Y-105016723D01*
X126985714Y-105016723D02*
X126938095Y-104826247D01*
X126938095Y-104826247D02*
X126938095Y-104683390D01*
X126938095Y-104683390D02*
X126985714Y-104492914D01*
X126985714Y-104492914D02*
X127033333Y-104397676D01*
X127033333Y-104397676D02*
X127128571Y-104302438D01*
X127128571Y-104302438D02*
X127271428Y-104254819D01*
X127271428Y-104254819D02*
X127366666Y-104254819D01*
X127366666Y-104254819D02*
X127509523Y-104302438D01*
X127509523Y-104302438D02*
X127557142Y-104350057D01*
X128509523Y-105254819D02*
X127938095Y-105254819D01*
X128223809Y-105254819D02*
X128223809Y-104254819D01*
X128223809Y-104254819D02*
X128128571Y-104397676D01*
X128128571Y-104397676D02*
X128033333Y-104492914D01*
X128033333Y-104492914D02*
X127938095Y-104540533D01*
X129128571Y-104254819D02*
X129223809Y-104254819D01*
X129223809Y-104254819D02*
X129319047Y-104302438D01*
X129319047Y-104302438D02*
X129366666Y-104350057D01*
X129366666Y-104350057D02*
X129414285Y-104445295D01*
X129414285Y-104445295D02*
X129461904Y-104635771D01*
X129461904Y-104635771D02*
X129461904Y-104873866D01*
X129461904Y-104873866D02*
X129414285Y-105064342D01*
X129414285Y-105064342D02*
X129366666Y-105159580D01*
X129366666Y-105159580D02*
X129319047Y-105207200D01*
X129319047Y-105207200D02*
X129223809Y-105254819D01*
X129223809Y-105254819D02*
X129128571Y-105254819D01*
X129128571Y-105254819D02*
X129033333Y-105207200D01*
X129033333Y-105207200D02*
X128985714Y-105159580D01*
X128985714Y-105159580D02*
X128938095Y-105064342D01*
X128938095Y-105064342D02*
X128890476Y-104873866D01*
X128890476Y-104873866D02*
X128890476Y-104635771D01*
X128890476Y-104635771D02*
X128938095Y-104445295D01*
X128938095Y-104445295D02*
X128985714Y-104350057D01*
X128985714Y-104350057D02*
X129033333Y-104302438D01*
X129033333Y-104302438D02*
X129128571Y-104254819D01*
X130483333Y-94459580D02*
X130435714Y-94507200D01*
X130435714Y-94507200D02*
X130292857Y-94554819D01*
X130292857Y-94554819D02*
X130197619Y-94554819D01*
X130197619Y-94554819D02*
X130054762Y-94507200D01*
X130054762Y-94507200D02*
X129959524Y-94411961D01*
X129959524Y-94411961D02*
X129911905Y-94316723D01*
X129911905Y-94316723D02*
X129864286Y-94126247D01*
X129864286Y-94126247D02*
X129864286Y-93983390D01*
X129864286Y-93983390D02*
X129911905Y-93792914D01*
X129911905Y-93792914D02*
X129959524Y-93697676D01*
X129959524Y-93697676D02*
X130054762Y-93602438D01*
X130054762Y-93602438D02*
X130197619Y-93554819D01*
X130197619Y-93554819D02*
X130292857Y-93554819D01*
X130292857Y-93554819D02*
X130435714Y-93602438D01*
X130435714Y-93602438D02*
X130483333Y-93650057D01*
X131340476Y-93888152D02*
X131340476Y-94554819D01*
X131102381Y-93507200D02*
X130864286Y-94221485D01*
X130864286Y-94221485D02*
X131483333Y-94221485D01*
X146457142Y-104859580D02*
X146409523Y-104907200D01*
X146409523Y-104907200D02*
X146266666Y-104954819D01*
X146266666Y-104954819D02*
X146171428Y-104954819D01*
X146171428Y-104954819D02*
X146028571Y-104907200D01*
X146028571Y-104907200D02*
X145933333Y-104811961D01*
X145933333Y-104811961D02*
X145885714Y-104716723D01*
X145885714Y-104716723D02*
X145838095Y-104526247D01*
X145838095Y-104526247D02*
X145838095Y-104383390D01*
X145838095Y-104383390D02*
X145885714Y-104192914D01*
X145885714Y-104192914D02*
X145933333Y-104097676D01*
X145933333Y-104097676D02*
X146028571Y-104002438D01*
X146028571Y-104002438D02*
X146171428Y-103954819D01*
X146171428Y-103954819D02*
X146266666Y-103954819D01*
X146266666Y-103954819D02*
X146409523Y-104002438D01*
X146409523Y-104002438D02*
X146457142Y-104050057D01*
X147409523Y-104954819D02*
X146838095Y-104954819D01*
X147123809Y-104954819D02*
X147123809Y-103954819D01*
X147123809Y-103954819D02*
X147028571Y-104097676D01*
X147028571Y-104097676D02*
X146933333Y-104192914D01*
X146933333Y-104192914D02*
X146838095Y-104240533D01*
X147980952Y-104383390D02*
X147885714Y-104335771D01*
X147885714Y-104335771D02*
X147838095Y-104288152D01*
X147838095Y-104288152D02*
X147790476Y-104192914D01*
X147790476Y-104192914D02*
X147790476Y-104145295D01*
X147790476Y-104145295D02*
X147838095Y-104050057D01*
X147838095Y-104050057D02*
X147885714Y-104002438D01*
X147885714Y-104002438D02*
X147980952Y-103954819D01*
X147980952Y-103954819D02*
X148171428Y-103954819D01*
X148171428Y-103954819D02*
X148266666Y-104002438D01*
X148266666Y-104002438D02*
X148314285Y-104050057D01*
X148314285Y-104050057D02*
X148361904Y-104145295D01*
X148361904Y-104145295D02*
X148361904Y-104192914D01*
X148361904Y-104192914D02*
X148314285Y-104288152D01*
X148314285Y-104288152D02*
X148266666Y-104335771D01*
X148266666Y-104335771D02*
X148171428Y-104383390D01*
X148171428Y-104383390D02*
X147980952Y-104383390D01*
X147980952Y-104383390D02*
X147885714Y-104431009D01*
X147885714Y-104431009D02*
X147838095Y-104478628D01*
X147838095Y-104478628D02*
X147790476Y-104573866D01*
X147790476Y-104573866D02*
X147790476Y-104764342D01*
X147790476Y-104764342D02*
X147838095Y-104859580D01*
X147838095Y-104859580D02*
X147885714Y-104907200D01*
X147885714Y-104907200D02*
X147980952Y-104954819D01*
X147980952Y-104954819D02*
X148171428Y-104954819D01*
X148171428Y-104954819D02*
X148266666Y-104907200D01*
X148266666Y-104907200D02*
X148314285Y-104859580D01*
X148314285Y-104859580D02*
X148361904Y-104764342D01*
X148361904Y-104764342D02*
X148361904Y-104573866D01*
X148361904Y-104573866D02*
X148314285Y-104478628D01*
X148314285Y-104478628D02*
X148266666Y-104431009D01*
X148266666Y-104431009D02*
X148171428Y-104383390D01*
X139238095Y-91454819D02*
X139238095Y-92264342D01*
X139238095Y-92264342D02*
X139285714Y-92359580D01*
X139285714Y-92359580D02*
X139333333Y-92407200D01*
X139333333Y-92407200D02*
X139428571Y-92454819D01*
X139428571Y-92454819D02*
X139619047Y-92454819D01*
X139619047Y-92454819D02*
X139714285Y-92407200D01*
X139714285Y-92407200D02*
X139761904Y-92359580D01*
X139761904Y-92359580D02*
X139809523Y-92264342D01*
X139809523Y-92264342D02*
X139809523Y-91454819D01*
X140809523Y-92454819D02*
X140238095Y-92454819D01*
X140523809Y-92454819D02*
X140523809Y-91454819D01*
X140523809Y-91454819D02*
X140428571Y-91597676D01*
X140428571Y-91597676D02*
X140333333Y-91692914D01*
X140333333Y-91692914D02*
X140238095Y-91740533D01*
X127957142Y-110159580D02*
X127909523Y-110207200D01*
X127909523Y-110207200D02*
X127766666Y-110254819D01*
X127766666Y-110254819D02*
X127671428Y-110254819D01*
X127671428Y-110254819D02*
X127528571Y-110207200D01*
X127528571Y-110207200D02*
X127433333Y-110111961D01*
X127433333Y-110111961D02*
X127385714Y-110016723D01*
X127385714Y-110016723D02*
X127338095Y-109826247D01*
X127338095Y-109826247D02*
X127338095Y-109683390D01*
X127338095Y-109683390D02*
X127385714Y-109492914D01*
X127385714Y-109492914D02*
X127433333Y-109397676D01*
X127433333Y-109397676D02*
X127528571Y-109302438D01*
X127528571Y-109302438D02*
X127671428Y-109254819D01*
X127671428Y-109254819D02*
X127766666Y-109254819D01*
X127766666Y-109254819D02*
X127909523Y-109302438D01*
X127909523Y-109302438D02*
X127957142Y-109350057D01*
X128909523Y-110254819D02*
X128338095Y-110254819D01*
X128623809Y-110254819D02*
X128623809Y-109254819D01*
X128623809Y-109254819D02*
X128528571Y-109397676D01*
X128528571Y-109397676D02*
X128433333Y-109492914D01*
X128433333Y-109492914D02*
X128338095Y-109540533D01*
X129814285Y-109254819D02*
X129338095Y-109254819D01*
X129338095Y-109254819D02*
X129290476Y-109731009D01*
X129290476Y-109731009D02*
X129338095Y-109683390D01*
X129338095Y-109683390D02*
X129433333Y-109635771D01*
X129433333Y-109635771D02*
X129671428Y-109635771D01*
X129671428Y-109635771D02*
X129766666Y-109683390D01*
X129766666Y-109683390D02*
X129814285Y-109731009D01*
X129814285Y-109731009D02*
X129861904Y-109826247D01*
X129861904Y-109826247D02*
X129861904Y-110064342D01*
X129861904Y-110064342D02*
X129814285Y-110159580D01*
X129814285Y-110159580D02*
X129766666Y-110207200D01*
X129766666Y-110207200D02*
X129671428Y-110254819D01*
X129671428Y-110254819D02*
X129433333Y-110254819D01*
X129433333Y-110254819D02*
X129338095Y-110207200D01*
X129338095Y-110207200D02*
X129290476Y-110159580D01*
X136133333Y-113359580D02*
X136085714Y-113407200D01*
X136085714Y-113407200D02*
X135942857Y-113454819D01*
X135942857Y-113454819D02*
X135847619Y-113454819D01*
X135847619Y-113454819D02*
X135704762Y-113407200D01*
X135704762Y-113407200D02*
X135609524Y-113311961D01*
X135609524Y-113311961D02*
X135561905Y-113216723D01*
X135561905Y-113216723D02*
X135514286Y-113026247D01*
X135514286Y-113026247D02*
X135514286Y-112883390D01*
X135514286Y-112883390D02*
X135561905Y-112692914D01*
X135561905Y-112692914D02*
X135609524Y-112597676D01*
X135609524Y-112597676D02*
X135704762Y-112502438D01*
X135704762Y-112502438D02*
X135847619Y-112454819D01*
X135847619Y-112454819D02*
X135942857Y-112454819D01*
X135942857Y-112454819D02*
X136085714Y-112502438D01*
X136085714Y-112502438D02*
X136133333Y-112550057D01*
X136609524Y-113454819D02*
X136800000Y-113454819D01*
X136800000Y-113454819D02*
X136895238Y-113407200D01*
X136895238Y-113407200D02*
X136942857Y-113359580D01*
X136942857Y-113359580D02*
X137038095Y-113216723D01*
X137038095Y-113216723D02*
X137085714Y-113026247D01*
X137085714Y-113026247D02*
X137085714Y-112645295D01*
X137085714Y-112645295D02*
X137038095Y-112550057D01*
X137038095Y-112550057D02*
X136990476Y-112502438D01*
X136990476Y-112502438D02*
X136895238Y-112454819D01*
X136895238Y-112454819D02*
X136704762Y-112454819D01*
X136704762Y-112454819D02*
X136609524Y-112502438D01*
X136609524Y-112502438D02*
X136561905Y-112550057D01*
X136561905Y-112550057D02*
X136514286Y-112645295D01*
X136514286Y-112645295D02*
X136514286Y-112883390D01*
X136514286Y-112883390D02*
X136561905Y-112978628D01*
X136561905Y-112978628D02*
X136609524Y-113026247D01*
X136609524Y-113026247D02*
X136704762Y-113073866D01*
X136704762Y-113073866D02*
X136895238Y-113073866D01*
X136895238Y-113073866D02*
X136990476Y-113026247D01*
X136990476Y-113026247D02*
X137038095Y-112978628D01*
X137038095Y-112978628D02*
X137085714Y-112883390D01*
X127957142Y-108659580D02*
X127909523Y-108707200D01*
X127909523Y-108707200D02*
X127766666Y-108754819D01*
X127766666Y-108754819D02*
X127671428Y-108754819D01*
X127671428Y-108754819D02*
X127528571Y-108707200D01*
X127528571Y-108707200D02*
X127433333Y-108611961D01*
X127433333Y-108611961D02*
X127385714Y-108516723D01*
X127385714Y-108516723D02*
X127338095Y-108326247D01*
X127338095Y-108326247D02*
X127338095Y-108183390D01*
X127338095Y-108183390D02*
X127385714Y-107992914D01*
X127385714Y-107992914D02*
X127433333Y-107897676D01*
X127433333Y-107897676D02*
X127528571Y-107802438D01*
X127528571Y-107802438D02*
X127671428Y-107754819D01*
X127671428Y-107754819D02*
X127766666Y-107754819D01*
X127766666Y-107754819D02*
X127909523Y-107802438D01*
X127909523Y-107802438D02*
X127957142Y-107850057D01*
X128909523Y-108754819D02*
X128338095Y-108754819D01*
X128623809Y-108754819D02*
X128623809Y-107754819D01*
X128623809Y-107754819D02*
X128528571Y-107897676D01*
X128528571Y-107897676D02*
X128433333Y-107992914D01*
X128433333Y-107992914D02*
X128338095Y-108040533D01*
X129766666Y-107754819D02*
X129576190Y-107754819D01*
X129576190Y-107754819D02*
X129480952Y-107802438D01*
X129480952Y-107802438D02*
X129433333Y-107850057D01*
X129433333Y-107850057D02*
X129338095Y-107992914D01*
X129338095Y-107992914D02*
X129290476Y-108183390D01*
X129290476Y-108183390D02*
X129290476Y-108564342D01*
X129290476Y-108564342D02*
X129338095Y-108659580D01*
X129338095Y-108659580D02*
X129385714Y-108707200D01*
X129385714Y-108707200D02*
X129480952Y-108754819D01*
X129480952Y-108754819D02*
X129671428Y-108754819D01*
X129671428Y-108754819D02*
X129766666Y-108707200D01*
X129766666Y-108707200D02*
X129814285Y-108659580D01*
X129814285Y-108659580D02*
X129861904Y-108564342D01*
X129861904Y-108564342D02*
X129861904Y-108326247D01*
X129861904Y-108326247D02*
X129814285Y-108231009D01*
X129814285Y-108231009D02*
X129766666Y-108183390D01*
X129766666Y-108183390D02*
X129671428Y-108135771D01*
X129671428Y-108135771D02*
X129480952Y-108135771D01*
X129480952Y-108135771D02*
X129385714Y-108183390D01*
X129385714Y-108183390D02*
X129338095Y-108231009D01*
X129338095Y-108231009D02*
X129290476Y-108326247D01*
X130088095Y-97154819D02*
X130088095Y-97964342D01*
X130088095Y-97964342D02*
X130135714Y-98059580D01*
X130135714Y-98059580D02*
X130183333Y-98107200D01*
X130183333Y-98107200D02*
X130278571Y-98154819D01*
X130278571Y-98154819D02*
X130469047Y-98154819D01*
X130469047Y-98154819D02*
X130564285Y-98107200D01*
X130564285Y-98107200D02*
X130611904Y-98059580D01*
X130611904Y-98059580D02*
X130659523Y-97964342D01*
X130659523Y-97964342D02*
X130659523Y-97154819D01*
X131088095Y-97250057D02*
X131135714Y-97202438D01*
X131135714Y-97202438D02*
X131230952Y-97154819D01*
X131230952Y-97154819D02*
X131469047Y-97154819D01*
X131469047Y-97154819D02*
X131564285Y-97202438D01*
X131564285Y-97202438D02*
X131611904Y-97250057D01*
X131611904Y-97250057D02*
X131659523Y-97345295D01*
X131659523Y-97345295D02*
X131659523Y-97440533D01*
X131659523Y-97440533D02*
X131611904Y-97583390D01*
X131611904Y-97583390D02*
X131040476Y-98154819D01*
X131040476Y-98154819D02*
X131659523Y-98154819D01*
D14*
%TO.C,R8*%
X137780000Y-110256359D02*
X137780000Y-110563641D01*
X137020000Y-110256359D02*
X137020000Y-110563641D01*
%TO.C,R9*%
X124436359Y-94320000D02*
X124743641Y-94320000D01*
X124436359Y-95080000D02*
X124743641Y-95080000D01*
%TO.C,R1*%
X144263641Y-82580000D02*
X143956359Y-82580000D01*
X144263641Y-81820000D02*
X143956359Y-81820000D01*
%TO.C,R3*%
X133220000Y-108263641D02*
X133220000Y-107956359D01*
X133980000Y-108263641D02*
X133980000Y-107956359D01*
%TO.C,C13*%
X138440000Y-99487836D02*
X138440000Y-99272164D01*
X139160000Y-99487836D02*
X139160000Y-99272164D01*
%TO.C,J3*%
X149330000Y-103070000D02*
X148000000Y-103070000D01*
X149330000Y-101740000D02*
X149330000Y-103070000D01*
X149330000Y-100470000D02*
X149330000Y-97870000D01*
X149330000Y-100470000D02*
X146670000Y-100470000D01*
X149330000Y-97870000D02*
X146670000Y-97870000D01*
X146670000Y-100470000D02*
X146670000Y-97870000D01*
%TO.C,R6*%
X140680000Y-105556359D02*
X140680000Y-105863641D01*
X139920000Y-105556359D02*
X139920000Y-105863641D01*
%TO.C,R5*%
X135010000Y-91506359D02*
X135010000Y-91813641D01*
X134250000Y-91506359D02*
X134250000Y-91813641D01*
%TO.C,SW1*%
X126825000Y-96125000D02*
X126705000Y-96125000D01*
X125695000Y-96125000D02*
X124555000Y-96125000D01*
X123545000Y-96125000D02*
X123425000Y-96125000D01*
X123425000Y-96125000D02*
X123425000Y-100525000D01*
X126825000Y-100525000D02*
X126825000Y-96125000D01*
X126705000Y-100525000D02*
X126825000Y-100525000D01*
X124555000Y-100525000D02*
X125695000Y-100525000D01*
X123425000Y-100525000D02*
X123545000Y-100525000D01*
%TO.C,C3*%
X135720000Y-96557836D02*
X135720000Y-96342164D01*
X136440000Y-96557836D02*
X136440000Y-96342164D01*
%TO.C,C2*%
X146034420Y-85090000D02*
X146315580Y-85090000D01*
X146034420Y-86110000D02*
X146315580Y-86110000D01*
%TO.C,C8*%
X138940000Y-101907836D02*
X138940000Y-101692164D01*
X139660000Y-101907836D02*
X139660000Y-101692164D01*
D12*
%TO.C,U3*%
X123250000Y-85400000D02*
X123250000Y-85605000D01*
X123250000Y-85400000D02*
X128750000Y-85400000D01*
X123250000Y-85605000D02*
X121500000Y-85605000D01*
X123250000Y-90910000D02*
X123250000Y-90610000D01*
X123250000Y-90910000D02*
X128750000Y-90910000D01*
X128750000Y-85400000D02*
X128750000Y-85700000D01*
X128750000Y-90910000D02*
X128750000Y-90610000D01*
D14*
%TO.C,U4*%
X141240000Y-103952500D02*
X141665000Y-103952500D01*
X143460000Y-104127500D02*
X143460000Y-103952500D01*
X141240000Y-104127500D02*
X141240000Y-103952500D01*
X143460000Y-105997500D02*
X143460000Y-106172500D01*
X141240000Y-105997500D02*
X141240000Y-106172500D01*
X143460000Y-106172500D02*
X143035000Y-106172500D01*
X141240000Y-106172500D02*
X141665000Y-106172500D01*
%TO.C,C6*%
X136720000Y-96557836D02*
X136720000Y-96342164D01*
X137440000Y-96557836D02*
X137440000Y-96342164D01*
%TO.C,C14*%
X129007836Y-84760000D02*
X128792164Y-84760000D01*
X129007836Y-84040000D02*
X128792164Y-84040000D01*
%TO.C,C5*%
X136360000Y-108172164D02*
X136360000Y-108387836D01*
X135640000Y-108172164D02*
X135640000Y-108387836D01*
%TO.C,C12*%
X138440000Y-95427836D02*
X138440000Y-95212164D01*
X139160000Y-95427836D02*
X139160000Y-95212164D01*
%TO.C,D1*%
X142902500Y-83065000D02*
X142902500Y-84535000D01*
X142902500Y-84535000D02*
X145187500Y-84535000D01*
X145187500Y-83065000D02*
X142902500Y-83065000D01*
%TO.C,R2*%
X120353641Y-86680000D02*
X120046359Y-86680000D01*
X120353641Y-85920000D02*
X120046359Y-85920000D01*
%TO.C,C11*%
X128940000Y-99507836D02*
X128940000Y-99292164D01*
X129660000Y-99507836D02*
X129660000Y-99292164D01*
%TO.C,R7*%
X142436359Y-102520000D02*
X142743641Y-102520000D01*
X142436359Y-103280000D02*
X142743641Y-103280000D01*
%TO.C,R4*%
X136010000Y-91506359D02*
X136010000Y-91813641D01*
X135250000Y-91506359D02*
X135250000Y-91813641D01*
%TO.C,C1*%
X139810000Y-87834420D02*
X139810000Y-88115580D01*
X138790000Y-87834420D02*
X138790000Y-88115580D01*
%TO.C,C7*%
X132940000Y-94227836D02*
X132940000Y-94012164D01*
X133660000Y-94227836D02*
X133660000Y-94012164D01*
%TO.C,Y1*%
X130100000Y-110600000D02*
X130100000Y-113900000D01*
X130100000Y-113900000D02*
X134100000Y-113900000D01*
%TO.C,J1*%
X138480000Y-81600000D02*
X136420000Y-81600000D01*
X138480000Y-79890000D02*
X138480000Y-81600000D01*
X138480000Y-75780000D02*
X138480000Y-77390000D01*
X138480000Y-75780000D02*
X130760000Y-75780000D01*
X136420000Y-81600000D02*
X136420000Y-82190000D01*
X130760000Y-81600000D02*
X132820000Y-81600000D01*
X130760000Y-79890000D02*
X130760000Y-81600000D01*
X130760000Y-75780000D02*
X130760000Y-77390000D01*
%TO.C,C10*%
X128940000Y-103107836D02*
X128940000Y-102892164D01*
X129660000Y-103107836D02*
X129660000Y-102892164D01*
%TO.C,C4*%
X131840000Y-94227836D02*
X131840000Y-94012164D01*
X132560000Y-94227836D02*
X132560000Y-94012164D01*
%TO.C,C18*%
X144547164Y-104115000D02*
X144762836Y-104115000D01*
X144547164Y-104835000D02*
X144762836Y-104835000D01*
%TO.C,U1*%
X148110000Y-86900000D02*
X148110000Y-92910000D01*
X141290000Y-89150000D02*
X141290000Y-92910000D01*
X148110000Y-92910000D02*
X146850000Y-92910000D01*
X141290000Y-92910000D02*
X142550000Y-92910000D01*
%TO.C,C15*%
X131212164Y-109440000D02*
X131427836Y-109440000D01*
X131212164Y-110160000D02*
X131427836Y-110160000D01*
%TO.C,C9*%
X135260000Y-111272164D02*
X135260000Y-111487836D01*
X134540000Y-111272164D02*
X134540000Y-111487836D01*
%TO.C,C16*%
X133212164Y-109440000D02*
X133427836Y-109440000D01*
X133212164Y-110160000D02*
X133427836Y-110160000D01*
%TO.C,U2*%
X130390000Y-106110000D02*
X130390000Y-105460000D01*
X131040000Y-98890000D02*
X130390000Y-98890000D01*
X131040000Y-106110000D02*
X130390000Y-106110000D01*
X136960000Y-98890000D02*
X137610000Y-98890000D01*
X136960000Y-106110000D02*
X137610000Y-106110000D01*
X137610000Y-98890000D02*
X137610000Y-99540000D01*
X137610000Y-106110000D02*
X137610000Y-105460000D01*
%TD*%
M02*
